<svg xmlns="http://www.w3.org/2000/svg" width="294.979" height="378.344" viewBox="0 0 294.979 378.344">
  <g id="Group_12" data-name="Group 12" transform="translate(-3270.669 -1345.99)">
    <g id="Group_7" data-name="Group 7" transform="translate(3271.145 1343.627)">
      <path id="Path_35" data-name="Path 35" d="M3260.339,255.036s-23.867,12.577-34.552,24.18-8.19,22.23-8.19,22.23-18.476-6.289-33,18.866-21.84,52.844-27.251,81.363-9.165,51.382-6.094,109.589S3230.467,615,3304.761,615s138.3-50.773,139.278-103.739a638.851,638.851,0,0,0-7.556-109.589c-2.194-13.7-15.551-65.861-37.781-100.229s-31.514-42.363-66.1-53.966S3260.339,255.036,3260.339,255.036Z" transform="translate(-3150.145 -234.796)" fill="#1f261f" stroke="#1f261f" stroke-width="1"/>
      <path id="Path_36" data-name="Path 36" d="M99.92,0c54.52,0,102.227,59.277,102.227,127.529S154.44,247.16,99.92,247.16-2.6,195.78-2.6,127.529,45.4,0,99.92,0Z" transform="translate(43.923 48.808)" fill="#fee4d3"/>
      <g id="Group_4" data-name="Group 4" transform="translate(63.651 155.085)">
        <path id="Path_16" data-name="Path 16" d="M7.208,11.585C.937,13.769-2.669,9.8,2.4,6.821S19.7-.622,33.964.072s28.01,8.337,28.01,8.337S46.505,3.05,32.292,5.432,13.479,9.4,7.208,11.585Z" transform="matrix(0.999, -0.035, 0.035, 0.999, 103.836, 2.163)" fill="#3f423f"/>
        <path id="Path_17" data-name="Path 17" d="M7.208.629C.937-1.555-2.669,2.415,2.4,5.393s17.3,7.444,31.563,6.749S61.974,3.8,61.974,3.8,46.5,9.165,32.291,6.782,13.478,2.812,7.208.629Z" transform="matrix(-0.999, -0.035, 0.035, -0.999, 61.936, 14.37)" fill="#3f423f"/>
      </g>
      <g id="Group_5" data-name="Group 5" transform="translate(71.67 181.129)">
        <path id="Union_1" data-name="Union 1" d="M3.519,20.122a8.73,8.73,0,0,1-.069-6.514C.726,16.548.621,20.1.145,19.484c-.73-.95,1.262-9.634,6.727-13.6C10.985,2.9,14.705,2.212,18.381,2.74a8.418,8.418,0,0,0,1.764-.55c1.828-.84,3.528-2.8,3.1-2.006a17.112,17.112,0,0,1-3.139,2.889c.633.152,1.265.335,1.9.543q.483.159.922.35A10.714,10.714,0,0,0,26.053,3.8c1.954-.476,4-2.072,3.429-1.377A20.585,20.585,0,0,1,24.939,5.1,19.061,19.061,0,0,1,27.2,7.045a15.43,15.43,0,0,0,4.413,1.208,11.251,11.251,0,0,0,2.762-.292c1.279-.261,2.107-.523,1.22,0a17.8,17.8,0,0,1-6.038,1.322,11.736,11.736,0,0,0,3.2,2.009c4.535,1.865,8.447.86,6.874,1.773s-6.828,3.044-13.5,0c-.837-.382-1.583-.761-2.262-1.126,1.741,4.752-1.111,10.342-6.537,12.645a12.334,12.334,0,0,1-4.812,1A9.492,9.492,0,0,1,3.519,20.122Z" transform="translate(106.761 0)" fill="#3f423f"/>
        <path id="Union_2" data-name="Union 2" d="M3.519,5.46a8.731,8.731,0,0,0-.069,6.514C.726,9.033.621,5.478.145,6.1c-.731.95,1.262,9.634,6.727,13.6,4.113,2.985,7.833,3.672,11.509,3.144a8.417,8.417,0,0,1,1.764.55c1.828.84,3.527,2.8,3.1,2.006a17.112,17.112,0,0,0-3.139-2.889c.633-.152,1.265-.335,1.9-.543q.483-.159.922-.35a10.713,10.713,0,0,1,3.122.163c1.955.476,4,2.072,3.429,1.377a20.586,20.586,0,0,0-4.543-2.676A19.065,19.065,0,0,0,27.2,18.536a15.428,15.428,0,0,1,4.413-1.208,11.253,11.253,0,0,1,2.763.292c1.279.261,2.107.523,1.22,0A17.8,17.8,0,0,0,29.558,16.3a11.74,11.74,0,0,1,3.2-2.009c4.535-1.865,8.446-.859,6.873-1.773s-6.827-3.044-13.5,0c-.837.382-1.583.761-2.262,1.126C25.608,8.888,22.756,3.3,17.33,1a12.335,12.335,0,0,0-4.812-1A9.492,9.492,0,0,0,3.519,5.46Z" transform="translate(39.987 25.581) rotate(180)" fill="#3f423f"/>
      </g>
      <path id="Path_37" data-name="Path 37" d="M.571,90.434S26.327,42.055,28.44,62.5s2.62,33.921,13.935,57.887S78.45,161.124,78.45,161.124s36.121,27.6,60.156,44.02,35.982,21.646,35.982,21.646,3.884-17.471,6.16-52.117-4.08-103.6-43.66-144.142S73.524,3.818,33.042,9.9.571,90.434.571,90.434Z" transform="matrix(0.996, -0.087, 0.087, 0.996, 79.144, 15.789)" fill="#1f261f" stroke="#1f261f" stroke-width="0.5"/>
      <path id="Path_38" data-name="Path 38" d="M3307.792,369.5c-.484,9.579,1.173,18.3,0,35.9s-4.358,28.275-4.692,34.515" transform="translate(-3076.479 -170.788)" fill="none" stroke="#1f261e" stroke-linecap="round" stroke-width="2"/>
      <path id="Path_39" data-name="Path 39" d="M4.693,0c-.484,9.579,1.173,18.3,0,35.9S.334,64.178,0,70.419" transform="matrix(0.998, 0.07, -0.07, 0.998, 232.007, 203.007)" fill="none" stroke="#1f261e" stroke-linecap="round" stroke-width="2"/>
      <path id="Path_40" data-name="Path 40" d="M3242.621,391.377c-.585-.439,2.705-.4,4.972,0s2.157,1.316,3.217,1.316,1.719-.585,4.1-1.316a27.66,27.66,0,0,1,5.7-.878" transform="translate(-3105.944 -166.925)" fill="none" stroke="#f7d1b8" stroke-linecap="round" stroke-width="3"/>
      <g id="Group_6" data-name="Group 6" transform="translate(20.149 176.044)">
        <path id="Path_28" data-name="Path 28" d="M3180.512,358s-13.309,6.508-16.38,17.842.292,17.623,3.51,28.665,4.022,13.382,12.87,18.72,22.522,2.632,22.522,2.632L3184.607,358Z" transform="translate(-3162.922 -358)" fill="#d8b7a2"/>
        <path id="Path_32" data-name="Path 32" d="M3169.851,373.286a21.627,21.627,0,0,1,6.727-3.8,13.873,13.873,0,0,1,6.727,0" transform="translate(-3159.719 -352.884)" fill="none" stroke="#ceab94" stroke-linecap="round" stroke-width="3"/>
      </g>
      <path id="Path_41" data-name="Path 41" d="M3226.189,322.961c-21.449,45.76-35.685,50.432-35.685,58.914s6,70.784,5.558,83.654-5.484-34.076-7.313-32.175.878,38.609,0,38.609-3.51-38.609-3.51-38.609.951-5.631-2.047-16.672-4.973-19.89-9.945-27.495,2.267-37,15.5-63.472,27.2-41.608,37.439-42.412S3247.638,277.2,3226.189,322.961Z" transform="translate(-3138.725 -216.508)" fill="#1f261f" stroke="#1f261f" stroke-width="1"/>
    </g>
    <g id="Group_10" data-name="Group 10" transform="translate(3392.319 1590.016)">
      <path id="Path_42" data-name="Path 42" d="M26.091,10.416c14.41,0,26.091-5.458,26.091,5.85S40.5,36.741,26.091,36.741,0,27.574,0,16.266,11.681,10.416,26.091,10.416Z" transform="translate(0 -9.1)" fill="#f7d1b8"/>
    </g>
    <path id="Path_43" data-name="Path 43" d="M2.976,0S14.261.831,24.305.831,43.155,0,43.155,0c1.644,0,2.976.93,2.976,2.077V5.193c0,1.147-1.332,2.077-2.976,2.077H2.976C1.332,7.271,0,6.341,0,5.193V2.077C0,.93,1.332,0,2.976,0Z" transform="translate(3395.579 1592.795)" fill="#fff"/>
  </g>
</svg>
