<svg xmlns="http://www.w3.org/2000/svg" width="202.016" height="260.739" viewBox="0 0 202.016 260.739">
  <g id="Group_11" data-name="Group 11" transform="translate(-3270.661 -1343.361)">
    <g id="Group_7" data-name="Group 7">
      <path id="Path_35" data-name="Path 35" d="M3225.492,251.467s-16.319,8.6-23.626,16.533-5.6,15.2-5.6,15.2-12.633-4.3-22.567,12.9-14.933,36.133-18.633,55.633-6.267,35.133-4.167,74.933,54.167,70.933,104.967,70.933,94.567-34.717,95.234-70.933a436.813,436.813,0,0,0-5.167-74.933c-1.5-9.367-10.633-45.033-25.833-68.533s-21.548-28.967-45.2-36.9S3225.492,251.467,3225.492,251.467Z" transform="translate(121 1106)" fill="#1f261f" stroke="#1f261f" stroke-width="1"/>
      <path id="Path_36" data-name="Path 36" d="M67.5,0c37.279,0,69.9,40.532,69.9,87.2S104.779,169,67.5,169-2.6,133.868-2.6,87.2,30.221,0,67.5,0Z" transform="translate(3302 1377)" fill="#fee4d3"/>
      <g id="Group_4" data-name="Group 4" transform="translate(2112 1106)">
        <path id="Path_16" data-name="Path 16" d="M3205.929,354.423c-4.288,1.493-6.753-1.222-3.287-3.258s11.827-5.09,21.582-4.615,19.152,5.7,19.152,5.7-10.577-3.665-20.3-2.036S3210.216,352.93,3205.929,354.423Z" transform="matrix(0.999, -0.035, 0.035, 0.999, -1937.475, 110.571)" fill="#3f423f"/>
        <path id="Path_17" data-name="Path 17" d="M4.928.43C.641-1.063-1.825,1.652,1.641,3.688S13.468,8.777,23.223,8.3,42.375,2.6,42.375,2.6,31.8,6.266,22.08,4.638,9.216,1.923,4.928.43Z" transform="matrix(-0.999, -0.035, 0.035, -0.999, 1245.017, 353.495)" fill="#3f423f"/>
      </g>
      <g id="Group_5" data-name="Group 5" transform="translate(2112 1106)">
        <path id="Union_1" data-name="Union 1" d="M-1987.46,13.758a5.97,5.97,0,0,1-.047-4.454c-1.862,2.01-1.934,4.441-2.259,4.018-.5-.65.863-6.587,4.6-9.3a10.265,10.265,0,0,1,7.869-2.15,5.755,5.755,0,0,0,1.206-.376c1.25-.574,2.412-1.913,2.121-1.372a11.7,11.7,0,0,1-2.146,1.976c.433.1.865.229,1.3.372q.33.108.63.239a7.325,7.325,0,0,0,2.135-.111c1.336-.326,2.733-1.417,2.344-.941a14.076,14.076,0,0,1-3.106,1.83,13.036,13.036,0,0,1,1.546,1.328,10.549,10.549,0,0,0,3.017.826,7.7,7.7,0,0,0,1.889-.2c.875-.178,1.441-.357.834,0a12.17,12.17,0,0,1-4.129.9,8.027,8.027,0,0,0,2.189,1.374c3.1,1.275,5.775.588,4.7,1.212a10.245,10.245,0,0,1-9.233,0c-.573-.261-1.082-.52-1.547-.77,1.19,3.249-.76,7.071-4.47,8.646a8.433,8.433,0,0,1-3.29.68A6.49,6.49,0,0,1-1987.46,13.758Z" transform="translate(3271.017 361.477)" fill="#3f423f"/>
        <path id="Union_2" data-name="Union 2" d="M2.406,3.733a5.97,5.97,0,0,0-.047,4.454C.5,6.177.425,3.746.1,4.169c-.5.65.863,6.587,4.6,9.3a10.265,10.265,0,0,0,7.87,2.15,5.755,5.755,0,0,1,1.206.376c1.25.574,2.412,1.912,2.121,1.372A11.7,11.7,0,0,0,13.75,15.39c.433-.1.865-.229,1.3-.372q.33-.108.63-.239a7.325,7.325,0,0,1,2.135.111c1.336.326,2.733,1.417,2.344.941A14.076,14.076,0,0,0,17.052,14,13.036,13.036,0,0,0,18.6,12.674a10.549,10.549,0,0,1,3.017-.826,7.7,7.7,0,0,1,1.889.2c.875.178,1.441.357.834,0a12.17,12.17,0,0,0-4.129-.9A8.027,8.027,0,0,1,22.4,9.769c3.1-1.275,5.775-.588,4.7-1.212a10.245,10.245,0,0,0-9.233,0c-.573.261-1.082.52-1.547.77,1.19-3.249-.76-7.071-4.47-8.646A8.434,8.434,0,0,0,8.56,0,6.49,6.49,0,0,0,2.406,3.733Z" transform="translate(1235.492 378.968) rotate(180)" fill="#3f423f"/>
      </g>
      <path id="Path_37" data-name="Path 37" d="M2468.38,299.6s17.611-33.08,19.056-19.1,1.792,23.194,9.529,39.581,24.666,27.856,24.666,27.856,24.7,18.874,41.133,30.1,24.6,14.8,24.6,14.8,2.656-11.946,4.212-35.636-2.79-70.84-29.853-98.56-43.2-21.28-70.88-17.12S2468.38,299.6,2468.38,299.6Z" transform="matrix(0.996, -0.087, 0.087, 0.996, 845.94, 1332.662)" fill="#1f261f" stroke="#1f261f" stroke-width="0.5"/>
      <path id="Path_38" data-name="Path 38" d="M3306.309,369.5c-.331,6.55.8,12.512,0,24.55s-2.98,19.333-3.208,23.6" transform="translate(123 1110)" fill="none" stroke="#1f261e" stroke-linecap="round" stroke-width="2"/>
      <path id="Path_39" data-name="Path 39" d="M3306.309,369.5c-.331,6.55.8,12.512,0,24.55s-2.98,19.333-3.208,23.6" transform="matrix(0.998, 0.07, -0.07, 0.998, 160.505, 883.424)" fill="none" stroke="#1f261e" stroke-linecap="round" stroke-width="2"/>
      <path id="Path_40" data-name="Path 40" d="M3242.6,391.1c-.4-.3,1.85-.275,3.4,0s1.475.9,2.2.9,1.175-.4,2.8-.9a18.914,18.914,0,0,1,3.9-.6" transform="translate(122 1106)" fill="none" stroke="#f7d1b8" stroke-linecap="round" stroke-width="3"/>
      <g id="Group_6" data-name="Group 6" transform="translate(2112 1106)">
        <path id="Path_28" data-name="Path 28" d="M3174.95,358s-9.1,4.45-11.2,12.2.2,12.05,2.4,19.6,2.75,9.15,8.8,12.8,15.4,1.8,15.4,1.8l-12.6-46.4Z" transform="translate(-1990)" fill="#d8b7a2"/>
        <path id="Path_32" data-name="Path 32" d="M3169.85,371.95a14.789,14.789,0,0,1,4.6-2.6,9.487,9.487,0,0,1,4.6,0" transform="translate(-1990)" fill="none" stroke="#ceab94" stroke-linecap="round" stroke-width="3"/>
      </g>
      <path id="Path_41" data-name="Path 41" d="M3208.95,307.7l-6.6-1.2a32.146,32.146,0,0,1-2,20.2c-4.75,10.3-15.8,18.2-15.8,24s4.1,48.4,3.8,57.2-3.75-23.3-5-22,.6,26.4,0,26.4-2.4-26.4-2.4-26.4.65-3.85-1.4-11.4-3.4-13.6-6.8-18.8,1.55-25.3,10.6-43.4,18.6-28.45,25.6-29S3208.95,307.7,3208.95,307.7Z" transform="translate(122 1106)" fill="#1f261f" stroke="#1f261f" stroke-width="1"/>
    </g>
    <g id="Group_10" data-name="Group 10" transform="translate(-182 92)">
      <path id="Path_42" data-name="Path 42" d="M17.84,10c9.853,0,17.84-3.732,17.84,4S27.693,28,17.84,28,0,21.732,0,14,7.987,10,17.84,10Z" transform="translate(3536 1411)" fill="#f7d1b8"/>
    </g>
    <path id="Path_43" data-name="Path 43" d="M2.035,0S9.751.568,16.619.568,29.508,0,29.508,0c1.124,0,2.035.636,2.035,1.42V3.551c0,.784-.911,1.42-2.035,1.42H2.035C.911,4.971,0,4.335,0,3.551V1.42C0,.636.911,0,2.035,0Z" transform="translate(3356.229 1514)" fill="#fff"/>
  </g>
</svg>
