<svg xmlns="http://www.w3.org/2000/svg" xmlns:xlink="http://www.w3.org/1999/xlink" width="2740" height="1647" viewBox="0 0 2740 1647">
  <defs>
    <radialGradient id="radial-gradient" cx="0.001" cy="0.001" r="1.606" gradientTransform="translate(0.755 -1.281) scale(0.711 1.28)" gradientUnits="objectBoundingBox">
      <stop offset="0.33" stop-color="#040505" stop-opacity="0"/>
      <stop offset="1" stop-color="#040505" stop-opacity="0.02"/>
    </radialGradient>
    <filter id="Path_125" x="414.015" y="295.843" width="1596.662" height="1152.738" filterUnits="userSpaceOnUse">
      <feOffset dx="20" dy="20" input="SourceAlpha"/>
      <feGaussianBlur stdDeviation="10" result="blur"/>
      <feFlood flood-opacity="0.18"/>
      <feComposite operator="in" in2="blur"/>
      <feComposite in="SourceGraphic"/>
    </filter>
    <filter id="Path_124" x="2028.911" y="551.933" width="460.173" height="896.733" filterUnits="userSpaceOnUse">
      <feOffset dx="20" dy="20" input="SourceAlpha"/>
      <feGaussianBlur stdDeviation="10" result="blur-2"/>
      <feFlood flood-opacity="0.161"/>
      <feComposite operator="in" in2="blur-2"/>
      <feComposite in="SourceGraphic"/>
    </filter>
    <filter id="Path_112" x="264.637" y="492.103" width="959.533" height="479.872" filterUnits="userSpaceOnUse">
      <feOffset dx="20" dy="20" input="SourceAlpha"/>
      <feGaussianBlur stdDeviation="10" result="blur-3"/>
      <feFlood flood-opacity="0.161"/>
      <feComposite operator="in" in2="blur-3"/>
      <feComposite in="SourceGraphic"/>
    </filter>
    <filter id="Path_112-2" x="1629.533" y="910.975" width="959.533" height="407.496" filterUnits="userSpaceOnUse">
      <feOffset dx="20" dy="20" input="SourceAlpha"/>
      <feGaussianBlur stdDeviation="10" result="blur-4"/>
      <feFlood flood-opacity="0.161"/>
      <feComposite operator="in" in2="blur-4"/>
      <feComposite in="SourceGraphic"/>
    </filter>
    <clipPath id="clip-Solar_Turbines_Cover_2">
      <rect width="2740" height="1647"/>
    </clipPath>
  </defs>
  <g id="Solar_Turbines_Cover_2" data-name="Solar Turbines Cover – 2" clip-path="url(#clip-Solar_Turbines_Cover_2)">
    <rect width="2740" height="1647" fill="#fde5b6"/>
    <g id="Group_75" data-name="Group 75" transform="translate(373.918 249)">
      <g id="Desktop_Frame" data-name="Desktop Frame" transform="translate(50.096 56.843)">
        <g id="Group_71" data-name="Group 71">
          <rect id="Rectangle_61" data-name="Rectangle 61" width="1536.662" height="1092.738" fill="#141414"/>
          <g transform="matrix(1, 0, 0, 1, -424.01, -305.84)" filter="url(#Path_125)">
            <path id="Path_125-2" data-name="Path 125" d="M0,0H1536.662V1092.738H0Z" transform="translate(424.01 305.84)" fill="url(#radial-gradient)"/>
          </g>
        </g>
      </g>
      <g id="Group_72" data-name="Group 72" transform="translate(49.798 56.723)">
        <rect id="nav_section_1" data-name="nav section 1" width="512.221" height="69.363" fill="#343434"/>
        <rect id="nav_section_2" data-name="nav section 2" width="512.221" height="69.363" transform="translate(512.221)" fill="#2c2c2c"/>
        <rect id="nav_section_3" data-name="nav section 3" width="512.221" height="69.363" transform="translate(1024.441)" fill="#262626"/>
      </g>
      <g id="Group_73" data-name="Group 73" transform="translate(1092.699 66.279)">
        <text id="Jacquelyn_Tse" data-name="Jacquelyn Tse" transform="translate(0 15)" fill="#fff" font-size="14" font-family="Roboto-Regular, Roboto"><tspan x="0" y="0">Jacquelyn Tse</tspan></text>
        <text id="Internal_User" data-name="Internal User" transform="translate(0 34.162)" fill="#fd9d25" font-size="14" font-family="Roboto-Regular, Roboto"><tspan x="0" y="0">Internal User</tspan></text>
      </g>
      <text id="CATERPILLAR_AURORA_IL_COGEN_PLANT" data-name="CATERPILLAR AURORA IL COGEN PLANT" transform="translate(583.638 86.608)" fill="#fff" font-size="14" font-family="Roboto-Regular, Roboto"><tspan x="0" y="0">CATERPIL</tspan><tspan y="0" letter-spacing="0.009em">L</tspan><tspan y="0">AR AURORA IL COGEN P</tspan><tspan y="0" letter-spacing="0.006em">L</tspan><tspan y="0">A</tspan><tspan y="0" letter-spacing="-0.013em">N</tspan><tspan y="0">T</tspan></text>
      <text id="_70301_TG01938_OHC14-B9210" data-name="70301_TG01938_OHC14-B9210" transform="translate(583.638 105.771)" fill="#fd9d25" font-size="14" font-family="Roboto-Regular, Roboto"><tspan x="0" y="0">70301_</tspan><tspan y="0" letter-spacing="-0.013em">T</tspan><tspan y="0">G01938_OHC14-B9210</tspan></text>
      <text id="InSight_Fleet_Label" data-name="InSight Fleet Label" transform="translate(192.933 100.006)" fill="#fff" font-size="28" font-family="Roboto-Light, Roboto" font-weight="300"><tspan x="0" y="0">InSight Fleet</tspan></text>
      <g id="Cheveron_Dark" data-name="Cheveron Dark" transform="translate(526.126 85.693)">
        <path id="Path_66" data-name="Path 66" d="M647.492,600.79v-.947l.007-1.071-9.537,9.012-9.552-9.026v4.233l8.431,7.97,1.124,1.061,9.527-9Z" transform="translate(-628.41 -598.758)" fill="#fd9d25"/>
      </g>
      <g id="Globe_Icon" data-name="Globe Icon" transform="translate(135.24 72.406)">
        <path id="Path_67" data-name="Path 67" d="M281.8,586.307a19.759,19.759,0,1,0,19.686,19.759A19.722,19.722,0,0,0,281.8,586.307" transform="translate(-262.113 -586.307)" fill="#2b2b2b"/>
        <path id="Path_68" data-name="Path 68" d="M292.431,606.29a11.16,11.16,0,0,1-5.174,8.463,16.919,16.919,0,0,0,2.491-8.463h-1.98c-.223,4.131-1.792,7.7-3.93,9.287a37.4,37.4,0,0,0,1.2-9.287h-1.965c-.1,5.837-1.073,9.25-1.694,10.053-.617-.8-1.591-4.214-1.691-10.053h-1.964a37.365,37.365,0,0,0,1.2,9.288c-2.14-1.586-3.71-5.156-3.931-9.288h-1.981a16.936,16.936,0,0,0,2.49,8.462,11.147,11.147,0,0,1-5.171-8.462h-1.984a13.11,13.11,0,0,0,13.03,12.142h.006a13.111,13.111,0,0,0,13.029-12.142Z" transform="translate(-261.694 -584.966)" fill="#f1940c"/>
        <path id="Path_69" data-name="Path 69" d="M281.438,593.063h-.12A13.124,13.124,0,0,0,268.348,605.2h1.981a11.1,11.1,0,0,1,3.53-7.174,11.292,11.292,0,0,1,1.643-1.288,16.954,16.954,0,0,0-2.489,8.462h1.981c.221-4.131,1.792-7.7,3.931-9.288a37.366,37.366,0,0,0-1.2,9.288h1.964a46.035,46.035,0,0,1,.336-4.949c.364-2.843.942-4.564,1.356-5.1h0c.618.8,1.591,4.214,1.691,10.052h1.965v-.035a37.267,37.267,0,0,0-1.2-9.252h0a7.315,7.315,0,0,1,1.6,1.688,14.96,14.96,0,0,1,2.336,7.6h1.978a16.932,16.932,0,0,0-2.49-8.462h0v0a11.251,11.251,0,0,1,3.416,3.39,11.046,11.046,0,0,1,1.758,5.073h1.982a13.109,13.109,0,0,0-12.974-12.138" transform="translate(-261.694 -585.854)" fill="#fff"/>
      </g>
      <g id="Solar_Turbines_logo" data-name="Solar Turbines logo" transform="translate(1442.848 74.109)">
        <path id="Path_70" data-name="Path 70" d="M1498.608,592.529h-3.545l.011-.481a1.868,1.868,0,0,0-.7-1.585,2.056,2.056,0,0,0-1.13-.267,1.775,1.775,0,0,0-1.338.6,1.444,1.444,0,0,0-.313.755,1.9,1.9,0,0,0,.285,1.189,5.839,5.839,0,0,0,2.005,1.417,12.393,12.393,0,0,1,3.991,2.487,3.864,3.864,0,0,1,.922,2.824,3.552,3.552,0,0,1-.5,2.03,3.819,3.819,0,0,1-1.643,1.556,7.384,7.384,0,0,1-3.381.627,8.835,8.835,0,0,1-3.408-.492,3.241,3.241,0,0,1-1.752-1.583,4.478,4.478,0,0,1-.409-2.023V598.7h3.654v.814a1.75,1.75,0,0,0,.771,1.614,2.519,2.519,0,0,0,1.187.219,1.838,1.838,0,0,0,1.517-.563,1.368,1.368,0,0,0,.284-.919,1.611,1.611,0,0,0-.571-1.445,21.657,21.657,0,0,0-2.828-1.755,15.086,15.086,0,0,1-2.116-1.307,4.687,4.687,0,0,1-1.179-1.261,3.667,3.667,0,0,1-.5-1.924,3.989,3.989,0,0,1,.642-2.4,3.758,3.758,0,0,1,1.777-1.391,7.3,7.3,0,0,1,2.746-.48,9.453,9.453,0,0,1,3.236.416,3.376,3.376,0,0,1,1.77,1.382,5.131,5.131,0,0,1,.516,2.666Z" transform="translate(-1487.451 -587.903)" fill="#fff"/>
        <path id="Path_71" data-name="Path 71" d="M1509.017,596.879v1.547a8.028,8.028,0,0,1-.306,2.428,3.166,3.166,0,0,1-.78,1.275,3.282,3.282,0,0,1-1.538.934,7.841,7.841,0,0,1-2.2.272,6.7,6.7,0,0,1-2.127-.267,3.609,3.609,0,0,1-1.466-.808,3.538,3.538,0,0,1-.825-1.3,5.028,5.028,0,0,1-.38-2.15l-.027-1.414a7.336,7.336,0,0,1,.523-3.148,3.2,3.2,0,0,1,1.486-1.467,5.983,5.983,0,0,1,2.638-.54,7.14,7.14,0,0,1,3.038.528,3.233,3.233,0,0,1,1.511,1.559,5.882,5.882,0,0,1,.447,2.55m-3.348,1.106c0-1.1-.04-2.079-.04-2.079a2.126,2.126,0,0,0-.446-1.37,1.208,1.208,0,0,0-.965-.35,1.338,1.338,0,0,0-1.019.4,2.253,2.253,0,0,0-.393,1.263s-.06.916-.06,2.079c0,.594.057,1.545.088,1.888a2.228,2.228,0,0,0,.436,1.241,1.208,1.208,0,0,0,.961.352,1.085,1.085,0,0,0,.965-.4,2.115,2.115,0,0,0,.38-1.136c.019-.353.093-.941.093-1.883" transform="translate(-1486.668 -587.612)" fill="#fff"/>
        <rect id="Rectangle_63" data-name="Rectangle 63" width="3.419" height="15.293" transform="translate(23.941 0.229)" fill="#fff"/>
        <path id="Path_72" data-name="Path 72" d="M1518.312,595.551h-3.206v-.356a3.756,3.756,0,0,1,.258-1.346,2.462,2.462,0,0,1,1.3-1.181,6.55,6.55,0,0,1,2.84-.432,5.748,5.748,0,0,1,2.929.538,2.221,2.221,0,0,1,1.293,1.389,14.606,14.606,0,0,1,.238,3.387s-.006,2.025,0,3.352a13.654,13.654,0,0,0,.135,2.232h-3.035l-.09-1.125a8.116,8.116,0,0,1-.864.712,3.786,3.786,0,0,1-2.2.614,3.051,3.051,0,0,1-2.17-.636,2.893,2.893,0,0,1-1.062-2.405l-.005-.116a4.263,4.263,0,0,1,.227-1.728,3.287,3.287,0,0,1,2.326-1.867,15.478,15.478,0,0,1,3.493-.305V595.4c0-.689-.05-.869-.209-1.075a1.168,1.168,0,0,0-.976-.387,1.314,1.314,0,0,0-1.079.409.849.849,0,0,0-.151.558Zm2.45,2.461a5.232,5.232,0,0,0-2.4.434,1.9,1.9,0,0,0-.531,1.557,1.461,1.461,0,0,0,.519,1.276,1.714,1.714,0,0,0,.985.182,1.863,1.863,0,0,0,.64-.156,1.54,1.54,0,0,0,.784-1.336Z" transform="translate(-1485.64 -587.612)" fill="#fff"/>
        <path id="Path_73" data-name="Path 73" d="M1528.646,592.436l.028,1.4c.643-1.395,1.681-1.539,3.114-1.6v2.636a4.86,4.86,0,0,0-2.146.354,1.9,1.9,0,0,0-.723,1.034,18.042,18.042,0,0,0-.094,2.476v4.4h-3.406V592.44Z" transform="translate(-1484.92 -587.612)" fill="#fff"/>
        <path id="Path_74" data-name="Path 74" d="M1557.966,592.411l.026,1.4c.645-1.395,1.735-1.54,3.168-1.6v2.662a5.082,5.082,0,0,0-2.2.407,1.9,1.9,0,0,0-.724,1.035,16.514,16.514,0,0,0-.095,2.4v4.394h-3.406V592.415Z" transform="translate(-1482.951 -587.614)" fill="#fff"/>
        <path id="Path_75" data-name="Path 75" d="M1546.493,588.117v2.662h-4v12.6h-3.613v-12.6h-4.1v-2.662Z" transform="translate(-1484.291 -587.889)" fill="#fff"/>
        <path id="Path_76" data-name="Path 76" d="M1575.418,590.482H1572v-2.315h3.422Zm0,12.9H1572V592.687h3.422Z" transform="translate(-1481.793 -587.885)" fill="#fff"/>
        <path id="Path_77" data-name="Path 77" d="M1580.4,592.421l-.009.984a3.583,3.583,0,0,1,1.448-.981,4,4,0,0,1,1.484-.2,3.312,3.312,0,0,1,1.565.365,2.274,2.274,0,0,1,1.171,1.116,4.826,4.826,0,0,1,.193,1.91v7.49h-3.46v-7.4a2.565,2.565,0,0,0-.087-1.018,1.072,1.072,0,0,0-1.043-.569c-.285,0-.962.07-1.162.605a3.008,3.008,0,0,0-.11,1.159v7.224h-3.379V592.421Z" transform="translate(-1481.456 -587.613)" fill="#fff"/>
        <path id="Path_78" data-name="Path 78" d="M1570.447,594.044a2.638,2.638,0,0,0-1.079-1.229,3,3,0,0,0-1.549-.392,4.271,4.271,0,0,0-1.7.252,3.164,3.164,0,0,0-1.258.926v-1.258l0-4.225h-3.349v15.265h3.245v-1.212a3.028,3.028,0,0,0,1.117,1.017,4.207,4.207,0,0,0,1.755.329,3.293,3.293,0,0,0,1.675-.366,3.217,3.217,0,0,0,1.123-1.288,6.338,6.338,0,0,0,.48-2.644l.006-.537v-1.8a6.433,6.433,0,0,0-.466-2.839m-2.929,5.226a4.709,4.709,0,0,1-.254,1.628,1.048,1.048,0,0,1-1.082.784c-.588-.006-.885-.426-1.115-.949a4.557,4.557,0,0,1-.274-1.831V596.6a4.707,4.707,0,0,1,.249-1.616,1.165,1.165,0,0,1,1.118-.7,1.242,1.242,0,0,1,1.12.662,3.608,3.608,0,0,1,.239,1.369Z" transform="translate(-1482.497 -587.889)" fill="#fff"/>
        <path id="Path_79" data-name="Path 79" d="M1550.09,603.093l.009-1.012a3.956,3.956,0,0,1-1.5,1.061,5,5,0,0,1-1.7.172,2.842,2.842,0,0,1-1.567-.419,2.092,2.092,0,0,1-.974-1.135,6.741,6.741,0,0,1-.176-1.89v-7.49h3.46v7.4a2.508,2.508,0,0,0,.089,1.018,1.194,1.194,0,0,0,1.042.675c.285,0,1.016-.1,1.215-.632a3.606,3.606,0,0,0,.11-1.24v-7.223h3.46v10.714Z" transform="translate(-1483.66 -587.603)" fill="#fff"/>
        <path id="Path_80" data-name="Path 80" d="M1596.076,594.14a2.821,2.821,0,0,0-1.48-1.4,6.428,6.428,0,0,0-2.9-.5,6.14,6.14,0,0,0-2.678.512,3.268,3.268,0,0,0-1.508,1.494,5.665,5.665,0,0,0-.53,2.542v1.353a7.924,7.924,0,0,0,.27,2.49,4.354,4.354,0,0,0,.928,1.592,4,4,0,0,0,1.537.864,6.507,6.507,0,0,0,2.16.272,7.082,7.082,0,0,0,2.094-.281,3.6,3.6,0,0,0,1.554-.847,3.684,3.684,0,0,0,.886-1.283,4.145,4.145,0,0,0,.267-1.42h-3.447v.308a1.346,1.346,0,0,1-1.391,1.585,1.282,1.282,0,0,1-.877-.342,3.147,3.147,0,0,1-.573-2.07v-.718h6.3v-1.365a6.983,6.983,0,0,0-.613-2.787m-2.607,2.5-3.08.014-.005-.545a2.3,2.3,0,0,1,.452-1.577,1.617,1.617,0,0,1,1.011-.432,1.464,1.464,0,0,1,1,.276,2.278,2.278,0,0,1,.626,1.894Z" transform="translate(-1480.787 -587.612)" fill="#fff"/>
        <path id="Path_81" data-name="Path 81" d="M1606.611,599.553a3.236,3.236,0,0,0-1.795-2.117c-.383-.211-1.521-.7-1.835-.824-.354-.138-1.333-.616-1.551-.715a1.174,1.174,0,0,1-.656-.721,1.039,1.039,0,0,1,.264-.924,1.1,1.1,0,0,1,.887-.347,1.234,1.234,0,0,1,.8.249c.3.27.308.606.308,1.16l0,.2h3.365a2.7,2.7,0,0,0-1.717-2.8,6.158,6.158,0,0,0-2.826-.477,5.975,5.975,0,0,0-2.636.512,3.019,3.019,0,0,0-1.489,1.361,2.411,2.411,0,0,0-.239,1.2,2.52,2.52,0,0,0,1.348,2.165,37.9,37.9,0,0,0,3.6,1.626c.336.181.874.615.9,1.092a1.012,1.012,0,0,1-.369,1.012,1.561,1.561,0,0,1-.981.258,1.3,1.3,0,0,1-.858-.258,1.57,1.57,0,0,1-.383-1.244v-.263h-3.317a4.47,4.47,0,0,0,.156,1.528,2.346,2.346,0,0,0,.728,1.132,3.2,3.2,0,0,0,1.51.727,8.375,8.375,0,0,0,2.206.241,6.986,6.986,0,0,0,2.084-.282,4.053,4.053,0,0,0,1.641-.9,2.8,2.8,0,0,0,.8-1.27,3.329,3.329,0,0,0,.062-1.333" transform="translate(-1480.086 -587.612)" fill="#fff"/>
        <rect id="Rectangle_64" data-name="Rectangle 64" width="126.373" height="1.807" transform="translate(0.154 20.673)" fill="#fff"/>
        <path id="Path_82" data-name="Path 82" d="M1492.426,612.5h-.038c-.178,0-.918.005-1.363.005h-.207c-.681,1.623-3.351,7.437-3.351,7.437h1.373l.685-1.648h1.877l.085,1.647h1.466Zm-2.477,4.773,1.212-2.912c.058.8.123,1.7.171,2.347.015.209.029.391.037.534a6.682,6.682,0,0,1-1.42.032" transform="translate(-1487.467 -586.252)" fill="#fff"/>
        <path id="Path_83" data-name="Path 83" d="M1499.8,612.38c-2.3,0-2.615,1.876-2.958,3.845-.333,1.95-.658,3.846,1.637,3.846,1.3,0,2.119-.64,2.462-2.629h-1.373c-.12.588-.252,1.514-.9,1.514-.783,0-.743-.822-.415-2.731s.572-2.732,1.354-2.732c.414,0,.508.372.337,1.362h1.367c.328-1.6-.094-2.475-1.513-2.475" transform="translate(-1486.854 -586.26)" fill="#fff"/>
        <path id="Path_84" data-name="Path 84" d="M1503.678,614.5a2.073,2.073,0,0,0-1.263.34,1.816,1.816,0,0,0-.693,1.267h1.262c.071-.412.173-.793.621-.793s.465.318.391.764l-.069.4c-.968-.018-1.937.028-2.424.969a2.71,2.71,0,0,0-.255.806,2.99,2.99,0,0,0-.044.641c.032.594.315,1.018.986,1.018a1.834,1.834,0,0,0,1.341-.6l-.044.5h1.2c.028-.317.047-.647.1-.966l.444-2.6c.161-.949.088-1.742-1.551-1.742m.008,3.6c-.123.471-.364.918-.83.918-.42,0-.4-.456-.335-.827.158-.927.624-.864,1.269-.9l.018-.006Z" transform="translate(-1486.545 -586.118)" fill="#fff"/>
        <path id="Path_85" data-name="Path 85" d="M1529.672,614.5a2.1,2.1,0,0,0-1.275.34,1.808,1.808,0,0,0-.7,1.267h1.273c.071-.412.173-.793.624-.793.47,0,.471.318.4.764l-.071.4c-.976-.018-1.955.028-2.446.969a2.814,2.814,0,0,0-.257.806,3.08,3.08,0,0,0-.044.641c.034.594.317,1.018.993,1.018a1.855,1.855,0,0,0,1.355-.6l-.045.5h1.207c.028-.317.048-.647.1-.966l.448-2.6c.161-.949.086-1.742-1.564-1.742m.006,3.6c-.124.471-.368.918-.836.918-.425,0-.4-.456-.338-.827.158-.927.627-.864,1.279-.9l.012-.006Z" transform="translate(-1484.802 -586.118)" fill="#fff"/>
        <path id="Path_86" data-name="Path 86" d="M1560.025,614.5a1.981,1.981,0,0,0-1.23.34,1.828,1.828,0,0,0-.673,1.267h1.229c.068-.412.166-.793.6-.793.452,0,.453.318.381.764l-.067.4c-.943-.018-1.888.028-2.362.969a2.826,2.826,0,0,0-.246.806,2.924,2.924,0,0,0-.043.641c.032.594.305,1.018.959,1.018a1.764,1.764,0,0,0,1.307-.6l-.043.5H1561c.028-.317.046-.647.1-.966l.431-2.6c.157-.949.085-1.742-1.51-1.742m.007,3.6c-.12.471-.354.918-.809.918-.41,0-.388-.456-.325-.827.154-.927.607-.864,1.235-.9a.055.055,0,0,1,.018-.006Z" transform="translate(-1482.759 -586.118)" fill="#fff"/>
        <path id="Path_87" data-name="Path 87" d="M1507.9,613.211l-1.413.65-.142.825h-.525l-.154.9h.525l-.551,3.208c-.053.319-.052,1.155,1.075,1.155a4.749,4.749,0,0,0,.681-.053l.155-.9a.794.794,0,0,1-.234.022c-.425,0-.372-.258-.3-.65l.476-2.784h.676l.156-.9h-.676Z" transform="translate(-1486.249 -586.204)" fill="#fff"/>
        <path id="Path_88" data-name="Path 88" d="M1512.048,617.435c.322-1.623.349-2.862-1.259-2.931h-.059c-.033,0-.047,0-.081.005-1.6.07-2.113,1.245-2.351,2.625-.279,1.628-.256,2.773,1.425,2.773a2.147,2.147,0,0,0,1.458-.5,2.369,2.369,0,0,0,.731-1.35h-1.318c-.073.432-.251.927-.715.927-.57,0-.429-.927-.323-1.546Zm-1.55-2.046.034,0a.4.4,0,0,1,.417.256.966.966,0,0,1,.049.362,4.773,4.773,0,0,1-.079.611H1509.7c.072-.409.3-1.115.8-1.231" transform="translate(-1486.078 -586.117)" fill="#fff"/>
        <path id="Path_89" data-name="Path 89" d="M1514.4,615.271h-.019l.115-.671h-1.234l-.893,5.205h1.3l.487-2.833c.089-.516.236-1.257,1.366-1.177l.221-1.3a1.42,1.42,0,0,0-1.34.774" transform="translate(-1485.796 -586.118)" fill="#fff"/>
        <path id="Path_90" data-name="Path 90" d="M1519.746,619.8h1.3l.9-5.2h-1.3Z" transform="translate(-1485.301 -586.111)" fill="#fff"/>
        <path id="Path_91" data-name="Path 91" d="M1520.76,613.641h1.3l.2-1.145h-1.3Z" transform="translate(-1485.232 -586.252)" fill="#fff"/>
        <path id="Path_92" data-name="Path 92" d="M1522.225,619.937h1.3l1.279-7.441h-1.3Z" transform="translate(-1485.134 -586.252)" fill="#fff"/>
        <path id="Path_93" data-name="Path 93" d="M1524.6,619.937h1.3l1.278-7.441h-1.3Z" transform="translate(-1484.974 -586.252)" fill="#fff"/>
        <path id="Path_94" data-name="Path 94" d="M1533.613,615.271h-.018l.116-.671h-1.237l-.894,5.205h1.3l.489-2.833c.086-.516.234-1.257,1.362-1.177l.224-1.3a1.422,1.422,0,0,0-1.341.774" transform="translate(-1484.506 -586.118)" fill="#fff"/>
        <path id="Path_95" data-name="Path 95" d="M1541.512,612.38c-2.3,0-2.618,1.876-2.957,3.845-.335,1.95-.661,3.846,1.635,3.846,1.3,0,2.119-.64,2.462-2.629h-1.373c-.121.588-.252,1.514-.9,1.514-.783,0-.743-.822-.416-2.731s.573-2.732,1.354-2.732c.416,0,.51.372.339,1.362h1.365c.328-1.6-.092-2.475-1.512-2.475" transform="translate(-1484.054 -586.26)" fill="#fff"/>
        <path id="Path_96" data-name="Path 96" d="M1545.281,614.5h0c-1.667,0-2.049,1.217-2.287,2.638-.271,1.629-.25,2.775,1.383,2.775s2.037-1.145,2.31-2.775c.238-1.421.264-2.638-1.406-2.638m.157,2.557c-.266,1.588-.439,1.929-.905,1.929s-.525-.341-.262-1.929c.183-1.083.318-1.63.856-1.63s.491.546.312,1.63" transform="translate(-1483.748 -586.118)" fill="#fff"/>
        <path id="Path_97" data-name="Path 97" d="M1552.256,614.5a1.546,1.546,0,0,0-1.277.661.9.9,0,0,0-.9-.661,1.319,1.319,0,0,0-1.169.628h-.017l.086-.524h-1.257l-.865,5.2h1.258l.6-3.587c.077-.463.208-.824.609-.824s.414.361.336.824l-.6,3.587h1.231l.6-3.587c.078-.463.207-.824.609-.824s.414.361.337.824l-.6,3.587h1.259l.695-4.174a.9.9,0,0,0-.936-1.134" transform="translate(-1483.48 -586.118)" fill="#fff"/>
        <path id="Path_98" data-name="Path 98" d="M1556.41,614.5a1.276,1.276,0,0,0-1.177.68h0v0h-.018l.1-.576h-1.2l-1.239,7.442h1.259l.455-2.731v0h.018a.882.882,0,0,0,.929.6c1.27,0,1.5-1.621,1.678-2.671.179-1.071.5-2.741-.8-2.741m-.417,2.658c-.218,1.309-.387,1.857-.843,1.857-.253.005-.391-.208-.41-.679l.338-2.163c.142-.482.343-.778.67-.778.547,0,.42.722.244,1.763" transform="translate(-1483.077 -586.118)" fill="#fff"/>
        <path id="Path_99" data-name="Path 99" d="M1518.608,614.472a1.2,1.2,0,0,0-1.115.68h0v0h-.017l.091-.577h-1.138l-1.176,7.443h1.2l.432-2.732v0h.016a.837.837,0,0,0,.883.6c1.2,0,1.424-1.619,1.592-2.67.169-1.072.474-2.743-.763-2.743m-.395,2.659c-.207,1.309-.369,1.857-.8,1.857-.239,0-.37-.208-.387-.68l.319-2.161c.135-.482.325-.779.637-.779.519,0,.4.721.231,1.763" transform="translate(-1485.602 -586.12)" fill="#fff"/>
        <path id="Path_100" data-name="Path 100" d="M1564.927,614.5a1.325,1.325,0,0,0-1.175.629h-.018l.089-.526h-1.266l-.876,5.205h1.268l.6-3.586c.078-.465.209-.824.615-.824s.416.359.338.824l-.6,3.586h1.269l.7-4.174a.9.9,0,0,0-.943-1.133" transform="translate(-1482.485 -586.118)" fill="#fff"/>
        <path id="Path_101" data-name="Path 101" d="M1567.732,618.156h-.019l-.032-3.661h-1.271l.353,5.247-.814,1.928h1.342l2.983-7.175h-1.235Z" transform="translate(-1482.199 -586.118)" fill="#fff"/>
        <path id="Path_102" data-name="Path 102" d="M1530.769,591.166a1.544,1.544,0,1,1,1.539-1.543,1.541,1.541,0,0,1-1.539,1.543m0-2.877a1.334,1.334,0,1,0,1.33,1.334,1.333,1.333,0,0,0-1.33-1.334" transform="translate(-1484.664 -587.891)" fill="#fff"/>
        <path id="Path_103" data-name="Path 103" d="M1531.3,590.141a.479.479,0,0,0,.053.267l-.163.058a.53.53,0,0,1-.055-.249c.01-.456-.276-.524-.276-.524h-.488v.741h-.2v-1.711h.672a.509.509,0,0,1,.4.15.483.483,0,0,1,.133.327.514.514,0,0,1-.075.263.414.414,0,0,1-.243.179s.261.061.239.5m-.93-.623h.445a.346.346,0,0,0,.264-.093.321.321,0,0,0,.085-.228.254.254,0,0,0-.092-.21.347.347,0,0,0-.229-.075h-.473Z" transform="translate(-1484.601 -587.848)" fill="#fff"/>
      </g>
      <text id="_16px" data-name="16px" transform="translate(1554.082 169)" fill="#b43c8c" font-size="12" font-family="SegoeUI, Segoe UI"><tspan x="0" y="0">16px</tspan></text>
      <line id="Line_27" data-name="Line 27" y2="50.689" transform="translate(76.3 23.955)" fill="none" stroke="#b43c8c" stroke-miterlimit="10" stroke-width="1"/>
      <line id="Line_28" data-name="Line 28" y2="129.122" transform="translate(50.155 22.888)" fill="none" stroke="#b43c8c" stroke-miterlimit="10" stroke-width="1"/>
      <line id="Line_29" data-name="Line 29" y2="129.122" transform="translate(133.391 22.888)" fill="none" stroke="#b43c8c" stroke-miterlimit="10" stroke-width="1"/>
      <line id="Line_30" data-name="Line 30" y2="129.122" transform="translate(176.076 22.888)" fill="none" stroke="#b43c8c" stroke-miterlimit="10" stroke-width="1"/>
      <line id="Line_31" data-name="Line 31" y2="47.487" transform="translate(195.285 104.523)" fill="none" stroke="#b43c8c" stroke-miterlimit="10" stroke-width="1"/>
      <line id="Line_32" data-name="Line 32" y2="129.122" transform="translate(545.302 22.888)" fill="none" stroke="#b43c8c" stroke-miterlimit="10" stroke-width="1"/>
      <line id="Line_33" data-name="Line 33" y2="26.145" transform="translate(562.376 125.866)" fill="none" stroke="#b43c8c" stroke-miterlimit="10" stroke-width="1"/>
      <line id="Line_34" data-name="Line 34" y2="129.122" transform="translate(579.45 22.888)" fill="none" stroke="#b43c8c" stroke-miterlimit="10" stroke-width="1"/>
      <line id="Line_35" data-name="Line 35" y2="129.122" transform="translate(1074.597 22.888)" fill="none" stroke="#b43c8c" stroke-miterlimit="10" stroke-width="1"/>
      <line id="Line_36" data-name="Line 36" y2="47.487" transform="translate(1091.671 104.523)" fill="none" stroke="#b43c8c" stroke-miterlimit="10" stroke-width="1"/>
      <line id="Line_37" data-name="Line 37" y2="129.122" transform="translate(1586.817 22.888)" fill="none" stroke="#b43c8c" stroke-miterlimit="10" stroke-width="1"/>
      <line id="Line_38" data-name="Line 38" y2="57.091" transform="translate(1570.81 94.919)" fill="none" stroke="#b43c8c" stroke-miterlimit="10" stroke-width="1"/>
      <line id="Line_39" data-name="Line 39" x2="1664.717" transform="translate(50.689 125.866)" fill="none" stroke="#b43c8c" stroke-miterlimit="10" stroke-width="1"/>
      <line id="Line_40" data-name="Line 40" x2="1664.717" transform="translate(50.689 56.502)" fill="none" stroke="#b43c8c" stroke-miterlimit="10" stroke-width="1"/>
      <line id="Line_41" data-name="Line 41" y2="33.615" transform="translate(562.376 22.354)" fill="none" stroke="#b43c8c" stroke-miterlimit="10" stroke-width="1"/>
      <line id="Line_42" data-name="Line 42" y2="67.763" transform="translate(526.094 22.354)" fill="none" stroke="#b43c8c" stroke-miterlimit="10" stroke-width="1"/>
      <text id="_16px-2" data-name="16px" transform="translate(1069.082 169)" fill="#b43c8c" font-size="12" font-family="SegoeUI, Segoe UI"><tspan x="0" y="0">16px</tspan></text>
      <text id="_16px-3" data-name="16px" transform="translate(533.082 169)" fill="#b43c8c" font-size="12" font-family="SegoeUI, Segoe UI"><tspan x="0" y="0">16px</tspan></text>
      <text id="_16px-4" data-name="16px" transform="translate(564.082 169)" fill="#b43c8c" font-size="12" font-family="SegoeUI, Segoe UI"><tspan x="0" y="0">16px</tspan></text>
      <text id="_16px-5" data-name="16px" transform="translate(516.082 13)" fill="#b43c8c" font-size="12" font-family="SegoeUI, Segoe UI"><tspan x="0" y="0">16px</tspan></text>
      <text id="_16px-6" data-name="16px" transform="translate(176.082 169)" fill="#b43c8c" font-size="12" font-family="SegoeUI, Segoe UI"><tspan x="0" y="0">16px</tspan></text>
      <text id="_33px" data-name="33px" transform="translate(139.082 13)" fill="#b43c8c" font-size="12" font-family="SegoeUI, Segoe UI"><tspan x="0" y="0">33px</tspan></text>
      <text id="_20px" data-name="20px" transform="translate(50.082 13)" fill="#b43c8c" font-size="12" font-family="SegoeUI, Segoe UI"><tspan x="0" y="0">20px</tspan></text>
      <text id="_20px-2" data-name="20px" transform="translate(107.082 169)" fill="#b43c8c" font-size="12" font-family="SegoeUI, Segoe UI"><tspan x="0" y="0">20px</tspan></text>
      <text id="_35px" data-name="35px" transform="translate(0.082 93)" fill="#b43c8c" font-size="12" font-family="SegoeUI, Segoe UI"><tspan x="0" y="0">35px</tspan></text>
      <text id="_65px" data-name="65px" transform="translate(1665.082 91)" fill="#b43c8c" font-size="12" font-family="SegoeUI, Segoe UI"><tspan x="0" y="0">65px</tspan></text>
      <line id="Line_43" data-name="Line 43" x1="54.957" transform="translate(21.343 74.11)" fill="none" stroke="#b43c8c" stroke-miterlimit="10" stroke-width="1"/>
      <line id="Line_44" data-name="Line 44" x1="54.423" transform="translate(21.877 112.527)" fill="none" stroke="#b43c8c" stroke-miterlimit="10" stroke-width="1"/>
      <g id="icon_IN" data-name="icon IN" transform="translate(76.079 74.596)">
        <g id="Group_74" data-name="Group 74">
          <rect id="Rectangle_65" data-name="Rectangle 65" width="11.476" height="6.998" fill="#fff"/>
          <path id="Path_104" data-name="Path 104" d="M239.829,588.382h-14.8l14.812,20.344Z" transform="translate(-205.441 -588.357)" fill="#fff"/>
          <path id="Path_105" data-name="Path 105" d="M225.638,624.469l13.215.032-13.221-18.159Z" transform="translate(-205.4 -587.152)" fill="#fff"/>
          <rect id="Rectangle_66" data-name="Rectangle 66" width="11.476" height="26.808" transform="translate(0 10.541)" fill="#fff"/>
        </g>
      </g>
      <line id="Line_45" data-name="Line 45" y2="78.434" transform="translate(110.982 72.509)" fill="none" stroke="#b43c8c" stroke-miterlimit="10" stroke-width="1"/>
    </g>
    <g id="Group_90" data-name="Group 90" transform="translate(1975.319 502.603)">
      <g id="Mobile_Frame" data-name="Mobile Frame" transform="translate(63.592 59.33)">
        <g id="Group_88" data-name="Group 88">
          <g transform="matrix(1, 0, 0, 1, -2038.91, -561.93)" filter="url(#Path_124)">
            <path id="Path_124-2" data-name="Path 124" d="M0,0H400.172V836.733H0Z" transform="translate(2038.91 561.93)" fill="#131313"/>
          </g>
        </g>
      </g>
      <rect id="nav_section_1-2" data-name="nav section 1" width="400.172" height="69.363" transform="translate(63.592 59.397)" fill="#343434"/>
      <rect id="nav_section_2-2" data-name="nav section 2" width="400.172" height="69.363" transform="translate(63.592 129.927)" fill="#2c2c2c"/>
      <text id="CATERPILLAR_AURORA_IL_COGEN_PLANT-2" data-name="CATERPILLAR AURORA IL COGEN PLANT" transform="translate(85.473 159.534)" fill="#fff" font-size="13" font-family="Roboto-Regular, Roboto"><tspan x="0" y="0">CATERPIL</tspan><tspan y="0" letter-spacing="0.009em">L</tspan><tspan y="0">AR AURORA IL COGEN P</tspan><tspan y="0" letter-spacing="0.006em">L</tspan><tspan y="0">A</tspan><tspan y="0" letter-spacing="-0.013em">N</tspan><tspan y="0">T</tspan></text>
      <text id="_70301_TG01938_OHC14-B9210-2" data-name="70301_TG01938_OHC14-B9210" transform="translate(85.473 176.611)" fill="#fd9d25" font-size="13" font-family="Roboto-Regular, Roboto"><tspan x="0" y="0">70301_</tspan><tspan y="0" letter-spacing="-0.013em">T</tspan><tspan y="0">G01938_OHC14-B9210</tspan></text>
      <text id="InSight_Fleet_Label-2" data-name="InSight Fleet Label" transform="translate(190.046 102.056)" fill="#fff" font-size="25" font-family="Roboto-Light, Roboto" font-weight="300"><tspan x="0" y="0">InSight Fleet</tspan></text>
      <g id="Cheveron_Dark-2" data-name="Cheveron Dark" transform="translate(429.076 89.34)">
        <path id="Path_118" data-name="Path 118" d="M2217.984,606.835v-.844l.006-.954-8.531,8.031-8.544-8.044V608.8l7.542,7.1,1.005.945,8.521-8.025Z" transform="translate(-2200.916 -605.025)" fill="#fd9d25"/>
      </g>
      <g id="Globe_Icon-2" data-name="Globe Icon" transform="translate(139.625 77.642)">
        <path id="Path_119" data-name="Path 119" d="M1947.279,594.063a17.608,17.608,0,1,0,17.609,17.608,17.607,17.607,0,0,0-17.609-17.608" transform="translate(-1929.672 -594.063)" fill="#2b2b2b"/>
        <path id="Path_120" data-name="Path 120" d="M1956.788,611.871a9.939,9.939,0,0,1-4.628,7.543,15.04,15.04,0,0,0,2.228-7.543h-1.77c-.2,3.682-1.6,6.863-3.516,8.277a33.223,33.223,0,0,0,1.073-8.277h-1.758c-.089,5.2-.96,8.244-1.514,8.96-.552-.715-1.423-3.756-1.513-8.96h-1.756a33.249,33.249,0,0,0,1.075,8.278c-1.913-1.414-3.318-4.6-3.516-8.278h-1.771a15.055,15.055,0,0,0,2.227,7.541,9.93,9.93,0,0,1-4.626-7.541h-1.774a11.708,11.708,0,0,0,11.654,10.821h.005a11.709,11.709,0,0,0,11.653-10.821Z" transform="translate(-1929.298 -592.868)" fill="#f1940c"/>
        <path id="Path_121" data-name="Path 121" d="M1946.956,600.084h-.108a11.709,11.709,0,0,0-11.6,10.816h1.771a9.876,9.876,0,0,1,3.156-6.393,10.073,10.073,0,0,1,1.47-1.148,15.065,15.065,0,0,0-2.226,7.541h1.771c.2-3.682,1.6-6.864,3.516-8.278a33.248,33.248,0,0,0-1.075,8.278h1.756a40.558,40.558,0,0,1,.3-4.41,11.779,11.779,0,0,1,1.212-4.549h0c.553.715,1.424,3.755,1.513,8.958h1.758v-.032a33.126,33.126,0,0,0-1.075-8.245h0a6.513,6.513,0,0,1,1.427,1.5,13.293,13.293,0,0,1,2.089,6.772h1.77a15.053,15.053,0,0,0-2.227-7.541h0v0a10.048,10.048,0,0,1,3.055,3.021,9.819,9.819,0,0,1,1.572,4.521h1.773a11.707,11.707,0,0,0-11.6-10.816" transform="translate(-1929.298 -593.659)" fill="#fff"/>
      </g>
      <line id="Line_63" data-name="Line 63" y2="201.278" transform="translate(446.414 31.139)" fill="none" stroke="#b43c8c" stroke-miterlimit="10" stroke-width="1"/>
      <line id="Line_64" data-name="Line 64" y2="200.786" transform="translate(463.488 31.139)" fill="none" stroke="#b43c8c" stroke-miterlimit="10" stroke-width="1"/>
      <line id="Line_65" data-name="Line 65" y2="56.682" transform="translate(428.273 31.139)" fill="none" stroke="#b43c8c" stroke-miterlimit="10" stroke-width="1"/>
      <line id="Line_66" data-name="Line 66" y2="105.806" transform="translate(176.43 31.139)" fill="none" stroke="#b43c8c" stroke-miterlimit="10" stroke-width="1"/>
      <line id="Line_67" data-name="Line 67" x2="0.013" y2="52.424" transform="translate(193.494 31.129)" fill="none" stroke="#b43c8c" stroke-miterlimit="10" stroke-width="1"/>
      <line id="Line_68" data-name="Line 68" y2="106.79" transform="translate(140.415 29.663)" fill="none" stroke="#b43c8c" stroke-miterlimit="10" stroke-width="1"/>
      <line id="Line_69" data-name="Line 69" y2="50.155" transform="translate(120.01 29.938)" fill="none" stroke="#b43c8c" stroke-miterlimit="10" stroke-width="1"/>
      <line id="Line_70" data-name="Line 70" y2="44.11" transform="translate(85.992 32.781)" fill="none" stroke="#b43c8c" stroke-miterlimit="10" stroke-width="1"/>
      <line id="Line_71" data-name="Line 71" y2="196.849" transform="translate(63.582 30.647)" fill="none" stroke="#b43c8c" stroke-miterlimit="10" stroke-width="1"/>
      <line id="Line_72" data-name="Line 72" x2="0.267" y2="111.515" transform="translate(84.649 114.499)" fill="none" stroke="#b43c8c" stroke-miterlimit="10" stroke-width="1"/>
      <line id="Line_73" data-name="Line 73" x2="441.522" transform="translate(62.782 129.439)" fill="none" stroke="#b43c8c" stroke-miterlimit="10" stroke-width="1"/>
      <line id="Line_74" data-name="Line 74" x2="441.79" transform="translate(63.849 59.009)" fill="none" stroke="#b43c8c" stroke-miterlimit="10" stroke-width="1"/>
      <line id="Line_75" data-name="Line 75" x2="441.522" transform="translate(62.782 198.803)" fill="none" stroke="#b43c8c" stroke-miterlimit="10" stroke-width="1"/>
      <line id="Line_76" data-name="Line 76" x1="60.43" transform="translate(30.235 76.358)" fill="none" stroke="#b43c8c" stroke-miterlimit="10" stroke-width="1"/>
      <line id="Line_77" data-name="Line 77" x1="54.423" transform="translate(30.371 114.241)" fill="none" stroke="#b43c8c" stroke-miterlimit="10" stroke-width="1"/>
      <text id="_35px-2" data-name="35px" transform="translate(-0.319 94.397)" fill="#b43c8c" font-size="12" font-family="SegoeUI, Segoe UI"><tspan x="0" y="0">35px</tspan></text>
      <text id="_20px-3" data-name="20px" transform="translate(67.681 241.397)" fill="#b43c8c" font-size="12" font-family="SegoeUI, Segoe UI"><tspan x="0" y="0">20px</tspan></text>
      <text id="_20px-4" data-name="20px" transform="translate(117.681 18.397)" fill="#b43c8c" font-size="12" font-family="SegoeUI, Segoe UI"><tspan x="0" y="0">20px</tspan></text>
      <text id="_16px-7" data-name="16px" transform="translate(170.681 18.397)" fill="#b43c8c" font-size="12" font-family="SegoeUI, Segoe UI"><tspan x="0" y="0">16px</tspan></text>
      <text id="_16px-8" data-name="16px" transform="translate(428.681 13.397)" fill="#b43c8c" font-size="12" font-family="SegoeUI, Segoe UI"><tspan x="0" y="0">16px</tspan></text>
      <text id="_16px-9" data-name="16px" transform="translate(433.681 244.397)" fill="#b43c8c" font-size="12" font-family="SegoeUI, Segoe UI"><tspan x="0" y="0">16px</tspan></text>
      <text id="_65px-2" data-name="65px" transform="translate(505.681 94.397)" fill="#b43c8c" font-size="12" font-family="SegoeUI, Segoe UI"><tspan x="0" y="0">65px</tspan></text>
      <text id="_65px-3" data-name="65px" transform="translate(505.681 164.397)" fill="#b43c8c" font-size="12" font-family="SegoeUI, Segoe UI"><tspan x="0" y="0">65px</tspan></text>
      <g id="icon_IN-2" data-name="icon IN" transform="translate(85.202 76.891)">
        <g id="Group_89" data-name="Group 89">
          <rect id="Rectangle_89" data-name="Rectangle 89" width="11.476" height="6.998" fill="#fff"/>
          <path id="Path_122" data-name="Path 122" d="M1911.829,593.382h-14.8l14.812,20.344Z" transform="translate(-1877.441 -593.358)" fill="#fff"/>
          <path id="Path_123" data-name="Path 123" d="M1897.638,629.469l13.215.032-13.221-18.159Z" transform="translate(-1877.4 -592.152)" fill="#fff"/>
          <rect id="Rectangle_90" data-name="Rectangle 90" width="11.476" height="26.808" transform="translate(0 10.541)" fill="#fff"/>
        </g>
      </g>
    </g>
    <g id="Group_83" data-name="Group 83" transform="translate(275.137 502.603)">
      <g id="Group_76" data-name="Group 76" transform="translate(0)">
        <g transform="matrix(1, 0, 0, 1, -275.14, -502.6)" filter="url(#Path_112)">
          <path id="Path_112-3" data-name="Path 112" d="M0,0H898.533V418.872H0Z" transform="translate(275.14 502.6)" fill="#141414" stroke="#707070" stroke-width="1"/>
        </g>
      </g>
      <rect id="Rectangle_68" data-name="Rectangle 68" width="878.665" height="60.189" transform="translate(9.943 8.914)" fill="#3c393a"/>
      <rect id="Rectangle_69" data-name="Rectangle 69" width="493.025" height="322.281" transform="translate(395.272 79.559)" fill="#2b2b2b"/>
      <text id="Enabled_-_Primary_Choice_call_to_Action_" data-name="Enabled - Primary Choice (call to Action)" transform="translate(85.014 165.825) rotate(0.019)" fill="#ffc826" font-size="13" font-family="Roboto-Regular, Roboto"><tspan x="0" y="0">Enabled - Primary Choice (call to Action)</tspan></text>
      <line id="Line_46" data-name="Line 46" x2="63.15" y2="0.021" transform="translate(333.247 162.578)" fill="none" stroke="#ffc826" stroke-miterlimit="10" stroke-width="1"/>
      <text id="Enabled_-_Primary_Choice_hover_" data-name="Enabled - Primary Choice (hover) " transform="translate(126.811 218.08) rotate(0.019)" fill="#ffc826" font-size="13" font-family="Roboto-Regular, Roboto"><tspan x="0" y="0">Enabled - Primary Choice (hover) </tspan></text>
      <line id="Line_47" data-name="Line 47" x2="63.15" y2="0.021" transform="translate(333.23 214.819)" fill="none" stroke="#ffc826" stroke-miterlimit="10" stroke-width="1"/>
      <text id="Enabled_-_Secondary_Choice" data-name="Enabled - Secondary Choice" transform="translate(158.038 270.331) rotate(0.019)" fill="#ffc826" font-size="13" font-family="Roboto-Regular, Roboto"><tspan x="0" y="0">Enabled - Secondary Choice</tspan></text>
      <line id="Line_48" data-name="Line 48" x2="63.15" y2="0.021" transform="translate(333.212 267.059)" fill="none" stroke="#ffc826" stroke-miterlimit="10" stroke-width="1"/>
      <text id="Enabled_-_Primary_Choice_call_to_Action_2" data-name="Enabled - Primary Choice (call to Action)" transform="translate(84.961 322.546) rotate(0.019)" fill="#ffc826" font-size="13" font-family="Roboto-Regular, Roboto"><tspan x="0" y="0">Enabled - Primary Choice (call to Action)</tspan></text>
      <line id="Line_49" data-name="Line 49" x2="63.15" y2="0.021" transform="translate(333.194 319.299)" fill="none" stroke="#ffc826" stroke-miterlimit="10" stroke-width="1"/>
      <text id="Disabled" transform="translate(271.552 374.85) rotate(0.019)" fill="#ffc826" font-size="13" font-family="Roboto-Regular, Roboto"><tspan x="0" y="0">Disabled</tspan></text>
      <line id="Line_50" data-name="Line 50" x2="63.15" y2="0.021" transform="translate(333.177 371.539)" fill="none" stroke="#ffc826" stroke-miterlimit="10" stroke-width="1"/>
      <line id="Line_51" data-name="Line 51" x2="43.692" y2="0.015" transform="translate(723.026 243.906)" fill="none"/>
      <g id="Group_77" data-name="Group 77" transform="translate(626.081 149.158)">
        <path id="Path_106" data-name="Path 106" d="M863.305,2561.89l-87.768-.029c-4.407,0-7.98,4.249-7.982,9.5l0,14.247c0,5.246,3.569,9.5,7.976,9.5l87.768.029c4.407,0,7.98-4.25,7.982-9.5l0-14.248C871.283,2566.145,867.713,2561.892,863.305,2561.89Z" transform="translate(-767.142 -2529.7)" fill="#f39a0a"/>
        <text id="Label" transform="translate(37.474 52.399) rotate(0.019)" fill="#040505" font-size="13" font-family="Roboto-Regular, Roboto"><tspan x="0" y="0">Label</tspan></text>
        <line id="Line_52" data-name="Line 52" x1="0.01" y2="30.869" transform="translate(38.012 13.619)" fill="none" stroke="#b33e8b" stroke-miterlimit="10" stroke-width="1"/>
        <line id="Line_53" data-name="Line 53" x1="0.029" y2="86.434" transform="translate(0 13.607)" fill="none" stroke="#b33e8b" stroke-miterlimit="10" stroke-width="1"/>
        <line id="Line_54" data-name="Line 54" x1="0.029" y2="86.434" transform="translate(104.481 12.692)" fill="none" stroke="#b33e8b" stroke-miterlimit="10" stroke-width="1"/>
        <line id="Line_55" data-name="Line 55" x1="0.016" y2="46.066" transform="translate(67.438 53.047)" fill="none" stroke="#b33e8b" stroke-miterlimit="10" stroke-width="1"/>
        <line id="Line_56" data-name="Line 56" x2="122.166" y2="0.041" transform="translate(0.023 31.653)" fill="none" stroke="#b33e8b" stroke-miterlimit="10" stroke-width="1"/>
        <line id="Line_57" data-name="Line 57" x2="122.166" y2="0.041" transform="translate(0.012 65.847)" fill="none" stroke="#b33e8b" stroke-miterlimit="10" stroke-width="1"/>
        <text id="_40px" data-name="40px" transform="translate(74.243 105.105) rotate(0.019)" fill="#b03d89" font-size="11" font-family="SegoeUI, Segoe UI"><tspan x="0" y="0">40px</tspan></text>
        <text id="_40px-2" data-name="40px" transform="translate(7.312 12) rotate(0.019)" fill="#b03d89" font-size="11" font-family="SegoeUI, Segoe UI"><tspan x="0" y="0">40px</tspan></text>
        <text id="_35px-3" data-name="35px" transform="translate(113.071 51.765) rotate(0.019)" fill="#b03d89" font-size="11" font-family="SegoeUI, Segoe UI"><tspan x="0" y="0">35px</tspan></text>
      </g>
      <text id="_Reference_Typography_section_for_more_information" data-name="*Reference Typography section for more information" transform="translate(731.791 390.751) rotate(0.019)" fill="#848383" font-size="6" font-family="Roboto-Regular, Roboto"><tspan x="0" y="0">*Reference Typography section for more information</tspan></text>
      <text id="General_Buttons" data-name="General  Buttons" transform="translate(28.616 45.758) rotate(0.019)" fill="#fff" font-size="22" font-family="Roboto-Light, Roboto" font-weight="300"><tspan x="0" y="0" xml:space="preserve">General  Buttons</tspan></text>
      <text id="Roboto_Regular_14px_American_Title_Case_Allow_left_and_right_padding_to_be_40px_with_a_minimum_height_of_35pxiels_15_maximum_characters_" data-name="Roboto Regular 14px
American  Title Case * 

Allow left and right padding to be 40px with a minimum height of 35pxiels

15 maximum characters 

" transform="translate(626.074 269.883) rotate(0.019)" fill="#848383" font-size="10" font-family="Roboto-Regular, Roboto"><tspan x="0" y="10">Roboto Regular 14px</tspan><tspan x="0" y="22" xml:space="preserve">American  Title Case * </tspan><tspan x="0" y="34"></tspan><tspan x="0" y="46">Allow left and right padding to be 40px with </tspan><tspan x="0" y="58">a minimum height of 35pxiels</tspan><tspan x="0" y="70"></tspan><tspan x="0" y="82">15 maximum characters </tspan><tspan x="0" y="94"></tspan></text>
      <text id="General_buttons_are_used_to_signify_necessary_or_mandatory_actions._" data-name="General buttons are used to signify necessary or mandatory actions. 
" transform="translate(421.916 94.945) rotate(0.019)" fill="#848383" font-size="12" font-family="Roboto-Regular, Roboto"><tspan x="0" y="13">General buttons are used to signify necessary or mandatory actions. </tspan><tspan y="13" font-size="10"></tspan><tspan font-size="10" font-family="Roboto-Regular"><tspan x="0" y="27.4"></tspan></tspan></text>
      <g id="Group_78" data-name="Group 78" transform="translate(405.919 144.859)">
        <path id="Path_107" data-name="Path 107" d="M631.084,2523.5l-87.768-.029c-4.407,0-7.98,4.249-7.982,9.5l0,14.247c0,5.246,3.569,9.5,7.976,9.5l87.768.03c4.407,0,7.98-4.25,7.982-9.5l0-14.248C639.061,2527.76,635.491,2523.506,631.084,2523.5Z" transform="translate(-535.328 -2523.475)" fill="#f1980c"/>
        <text id="Label-2" data-name="Label" transform="translate(37.066 20.238) rotate(0.019)" fill="#040505" font-size="13" font-family="Roboto-Regular, Roboto"><tspan x="0" y="0">Label</tspan></text>
      </g>
      <g id="Group_79" data-name="Group 79" transform="translate(405.903 194.25)">
        <path id="Path_108" data-name="Path 108" d="M631.066,2575.5l-87.768-.029c-4.407,0-7.98,4.249-7.982,9.5l0,14.247c0,5.246,3.569,9.5,7.976,9.5l87.768.03c4.407,0,7.98-4.25,7.981-9.5l.006-14.248C639.043,2579.76,635.473,2575.506,631.066,2575.5Z" transform="translate(-535.311 -2575.475)" fill="#ffca27"/>
        <text id="Label-3" data-name="Label" transform="translate(37.066 20.238) rotate(0.019)" fill="#040505" font-size="13" font-family="Roboto-Regular, Roboto"><tspan x="0" y="0">Label</tspan></text>
      </g>
      <g id="Group_80" data-name="Group 80" transform="translate(405.85 350.971)">
        <path id="Path_109" data-name="Path 109" d="M631.01,2740.5l-87.768-.03c-4.407,0-7.98,4.25-7.982,9.5l0,14.247c0,5.246,3.568,9.5,7.976,9.5l87.768.03c4.407,0,7.98-4.25,7.982-9.5l0-14.247C638.988,2744.76,635.418,2740.506,631.01,2740.5Z" transform="translate(-535.255 -2740.475)" fill="#3b393a"/>
        <text id="Label-4" data-name="Label" transform="translate(37.066 20.238) rotate(0.019)" fill="#6d6d6e" font-size="13" font-family="Roboto-Regular, Roboto"><tspan x="0" y="0">Label</tspan></text>
      </g>
      <g id="Group_81" data-name="Group 81" transform="translate(405.868 296.831)">
        <path id="Path_110" data-name="Path 110" d="M631.029,2683.5l-87.768-.03c-4.407,0-7.98,4.25-7.982,9.5l0,14.247c0,5.246,3.568,9.5,7.976,9.5l87.768.03c4.407,0,7.98-4.251,7.982-9.5l0-14.247C639.007,2687.76,635.437,2683.506,631.029,2683.5Z" transform="translate(-535.274 -2683.475)" fill="#555656"/>
        <text id="Label-5" data-name="Label" transform="translate(37.066 20.238) rotate(0.019)" fill="#fff" font-size="13" font-family="Roboto-Regular, Roboto"><tspan x="0" y="0">Label</tspan></text>
      </g>
      <g id="Group_82" data-name="Group 82" transform="translate(405.885 246.49)">
        <path id="Path_111" data-name="Path 111" d="M631.047,2630.5l-87.768-.029c-4.407,0-7.98,4.249-7.982,9.5l0,14.247c0,5.246,3.568,9.5,7.976,9.5l87.768.029c4.407,0,7.98-4.25,7.982-9.5l0-14.247C639.025,2634.76,635.455,2630.505,631.047,2630.5Z" transform="translate(-535.292 -2630.475)" fill="#3b393a"/>
        <text id="Label-6" data-name="Label" transform="translate(37.066 20.238) rotate(0.019)" fill="#fff" font-size="13" font-family="Roboto-Regular, Roboto"><tspan x="0" y="0">Label</tspan></text>
      </g>
      <line id="Line_58" data-name="Line 58" x2="447.367" y2="0.151" transform="translate(422.855 125.368)" fill="none" stroke="#141414" stroke-miterlimit="10" stroke-width="2"/>
    </g>
    <g id="Group_91" data-name="Group 91" transform="translate(1640.033 921.475)">
      <g id="Group_87" data-name="Group 87" transform="translate(0 0)">
        <g transform="matrix(1, 0, 0, 1, -1640.03, -921.48)" filter="url(#Path_112-2)">
          <path id="Path_112-4" data-name="Path 112" d="M0,0H898.533V346.5H0Z" transform="translate(1640.03 921.48)" fill="#141414" stroke="#707070" stroke-width="1"/>
        </g>
      </g>
      <g id="Group_86" data-name="Group 86" transform="translate(9.497 10.448)">
        <rect id="Rectangle_70" data-name="Rectangle 70" width="878.665" height="60.189" fill="#3c393a"/>
        <text id="Machine_Event_Checkboxes" data-name="Machine Event Checkboxes" transform="translate(18.745 36.989)" fill="#fff" font-size="22" font-family="Roboto-Light, Roboto" font-weight="300"><tspan x="0" y="0">Machine Event Checkboxes</tspan></text>
        <rect id="Rectangle_71" data-name="Rectangle 71" width="495.271" height="247.904" transform="translate(381.816 70.871)" fill="#3a3939"/>
        <g id="Group_84" data-name="Group 84" transform="translate(410.902 174.913)">
          <text id="SD" transform="translate(0 18.549)" fill="#fff" font-size="13" font-family="Roboto-Regular, Roboto"><tspan x="0" y="0">SD</tspan></text>
          <text id="AL" transform="translate(51.024 18.549)" fill="#fff" font-size="13" font-family="Roboto-Regular, Roboto"><tspan x="0" y="0">AL</tspan></text>
          <text id="ST" transform="translate(104.926 18.549)" fill="#fff" font-size="13" font-family="Roboto-Regular, Roboto"><tspan x="0" y="0">ST</tspan></text>
          <text id="ON" transform="translate(162.491 18.549)" fill="#fff" font-size="13" font-family="Roboto-Regular, Roboto"><tspan x="0" y="0">ON</tspan></text>
          <text id="OFF" transform="translate(216.131 18.549)" fill="#fff" font-size="13" font-family="Roboto-Regular, Roboto"><tspan x="0" y="0">OFF</tspan></text>
          <rect id="Rectangle_72" data-name="Rectangle 72" width="14.258" height="14.258" transform="translate(1.219 27.649)" fill="#e32d32" stroke="#1a1a1a" stroke-miterlimit="10" stroke-width="1"/>
          <rect id="Rectangle_73" data-name="Rectangle 73" width="14.258" height="14.258" transform="translate(52.046 27.649)" fill="#fede44" stroke="#1a1a1a" stroke-miterlimit="10" stroke-width="1"/>
          <rect id="Rectangle_74" data-name="Rectangle 74" width="14.258" height="14.258" transform="translate(165.036 27.649)" fill="#fff" stroke="#1a1a1a" stroke-miterlimit="10" stroke-width="1"/>
          <rect id="Rectangle_75" data-name="Rectangle 75" width="14.258" height="14.258" transform="translate(215.181 27.649)" fill="#141414" stroke="#1a1a1a" stroke-miterlimit="10" stroke-width="1"/>
          <rect id="Rectangle_76" data-name="Rectangle 76" width="14.258" height="14.258" transform="translate(104.926 27.649)" fill="#9d9b8d" stroke="#1a1a1a" stroke-miterlimit="10" stroke-width="1"/>
          <rect id="Rectangle_77" data-name="Rectangle 77" width="0.953" height="53.121" transform="translate(141.633)" fill="#131313"/>
          <rect id="Rectangle_78" data-name="Rectangle 78" width="0.953" height="53.121" transform="translate(260.151)" fill="#131313"/>
        </g>
        <rect id="Rectangle_79" data-name="Rectangle 79" width="139.358" height="59.336" transform="translate(404.185 168.698)" fill="none" stroke="#ffca27" stroke-miterlimit="10" stroke-width="1"/>
        <rect id="Rectangle_80" data-name="Rectangle 80" width="96.882" height="59.336" transform="translate(566.338 168.698)" fill="none" stroke="#ffca27" stroke-miterlimit="10" stroke-width="1"/>
        <line id="Line_59" data-name="Line 59" y1="0.008" x2="64.588" transform="translate(663.219 193.857)" fill="none" stroke="#ffc826" stroke-miterlimit="10" stroke-width="1"/>
        <line id="Line_60" data-name="Line 60" x2="72.156" transform="translate(331.763 197.501)" fill="none" stroke="#ffc826" stroke-miterlimit="10" stroke-width="1"/>
        <text id="Machine_Event_status" data-name="Machine Event status" transform="translate(733.504 197.169)" fill="#ffc826" font-size="13" font-family="Roboto-Regular, Roboto"><tspan x="0" y="0">Machine Event status</tspan></text>
        <text id="Machine_Event_checkboxes_are_universal_standards_throughout_Solar_s_engine_systems_Do_not_change_the_colors_or_acronyms_of_the_events_SD_-_Shut_Down_AL_-_Alarm_ST_-_Status" data-name="Machine Event checkboxes are universal standards throughout Solar’s engine systems
Do not change the colors or acronyms of the events

SD - Shut Down      AL - Alarm      ST - Status" transform="translate(405.343 80.9)" fill="#848383" font-size="11" font-family="Roboto-Regular, Roboto"><tspan x="0" y="12">Machine Event checkboxes are universal standards throughout Solar’s engine systems</tspan><tspan x="0" y="25.2">Do not change the colors or acronyms of the events</tspan><tspan x="0" y="38.4"></tspan><tspan font-size="10"><tspan x="0" y="51.6" xml:space="preserve">SD - Shut Down      AL - Alarm      ST - Status</tspan></tspan></text>
        <text id="Machine_Event_Checkboxes-2" data-name="Machine Event Checkboxes" transform="translate(159.802 200.146)" fill="#ffc826" font-size="13" font-family="Roboto-Regular, Roboto"><tspan x="0" y="0">Machine Event Checkboxes</tspan></text>
        <g id="Group_85" data-name="Group 85" transform="translate(410.902 252.286)">
          <text id="SD-2" data-name="SD" transform="translate(0 18.549)" fill="#fff" font-size="13" font-family="Roboto-Regular, Roboto"><tspan x="0" y="0">SD</tspan></text>
          <text id="AL-2" data-name="AL" transform="translate(51.024 18.549)" fill="#fff" font-size="13" font-family="Roboto-Regular, Roboto"><tspan x="0" y="0">AL</tspan></text>
          <text id="ST-2" data-name="ST" transform="translate(104.926 18.549)" fill="#fff" font-size="13" font-family="Roboto-Regular, Roboto"><tspan x="0" y="0">ST</tspan></text>
          <text id="ON-2" data-name="ON" transform="translate(162.491 18.549)" fill="#fff" font-size="13" font-family="Roboto-Regular, Roboto"><tspan x="0" y="0">ON</tspan></text>
          <text id="OFF-2" data-name="OFF" transform="translate(216.131 18.549)" fill="#fff" font-size="13" font-family="Roboto-Regular, Roboto"><tspan x="0" y="0">OFF</tspan></text>
          <rect id="Rectangle_81" data-name="Rectangle 81" width="14.258" height="14.258" transform="translate(1.219 27.649)" fill="#e32d32" stroke="#1a1a1a" stroke-miterlimit="10" stroke-width="1"/>
          <rect id="Rectangle_82" data-name="Rectangle 82" width="14.258" height="14.258" transform="translate(52.046 27.649)" fill="#fede44" stroke="#1a1a1a" stroke-miterlimit="10" stroke-width="1"/>
          <rect id="Rectangle_83" data-name="Rectangle 83" width="14.258" height="14.258" transform="translate(165.036 27.649)" fill="#fff" stroke="#1a1a1a" stroke-miterlimit="10" stroke-width="1"/>
          <rect id="Rectangle_84" data-name="Rectangle 84" width="14.258" height="14.258" transform="translate(215.181 27.649)" fill="#141414" stroke="#1a1a1a" stroke-miterlimit="10" stroke-width="1"/>
          <rect id="Rectangle_85" data-name="Rectangle 85" width="14.258" height="14.258" transform="translate(104.926 27.649)" fill="#9d9b8d" stroke="#1a1a1a" stroke-miterlimit="10" stroke-width="1"/>
          <rect id="Rectangle_86" data-name="Rectangle 86" width="0.953" height="53.121" transform="translate(141.633)" fill="#131313"/>
          <rect id="Rectangle_87" data-name="Rectangle 87" width="0.953" height="53.121" transform="translate(260.151)" fill="#131313"/>
          <path id="Path_113" data-name="Path 113" d="M1672.385,3101.364l-4.269-3.648,1.317-1.317,2.641,2.33,4.89-6.446,1.317,1.317-5.9,7.764Z" transform="translate(-1665.144 -3061.58)" fill="#fdfeff"/>
          <path id="Path_114" data-name="Path 114" d="M1898.385,3100.363l-4.269-3.648,1.317-1.317,2.641,2.33,4.89-6.446,1.317,1.317-5.9,7.764Z" transform="translate(-1676.484 -3061.529)" fill="#fff"/>
          <path id="Path_115" data-name="Path 115" d="M1845.385,3100.363l-4.269-3.648,1.317-1.317,2.641,2.33,4.89-6.446,1.317,1.317-5.9,7.764Z" transform="translate(-1673.825 -3061.529)" fill="#040505"/>
          <path id="Path_116" data-name="Path 116" d="M1781.385,3101.364l-4.269-3.648,1.317-1.317,2.641,2.33,4.89-6.446,1.317,1.317-5.9,7.764Z" transform="translate(-1670.614 -3061.58)" fill="#fff"/>
          <path id="Path_117" data-name="Path 117" d="M1726.385,3100.363l-4.269-3.648,1.317-1.317,2.641,2.33,4.89-6.446,1.317,1.317-5.9,7.764Z" transform="translate(-1667.854 -3061.529)" fill="#040505"/>
        </g>
        <line id="Line_61" data-name="Line 61" x2="72.156" transform="translate(331.763 279.71)" fill="none" stroke="#ffc826" stroke-miterlimit="10" stroke-width="1"/>
        <text id="Machine_Event_Checkboxes_selected_" data-name="Machine Event Checkboxes (selected)" transform="translate(99.037 278.981)" fill="#ffc826" font-size="13" font-family="Roboto-Regular, Roboto"><tspan x="0" y="0">Machine Event Checkboxes (selected)</tspan></text>
        <line id="Line_62" data-name="Line 62" x2="447.367" transform="translate(407.243 144.008)" fill="none" stroke="#141414" stroke-miterlimit="10" stroke-width="2"/>
      </g>
    </g>
    <g id="Group_99" data-name="Group 99" transform="translate(202 1072.497)">
      <rect id="Rectangle_91" data-name="Rectangle 91" width="650.805" height="92.622" transform="translate(169.585 0.959)" fill="#eaeaea"/>
      <rect id="Rectangle_92" data-name="Rectangle 92" width="649.856" height="92.622" transform="translate(169.585 95.897)" fill="#181818"/>
      <line id="Line_78" data-name="Line 78" x2="39.915" transform="translate(10.875 144.134)" fill="none" stroke="#0064af" stroke-linecap="round" stroke-width="0.5"/>
      <line id="Line_79" data-name="Line 79" x2="39.797" transform="translate(10.994 186.451)" fill="none" stroke="#0064af" stroke-width="0.5"/>
      <line id="Line_80" data-name="Line 80" x2="41.094" transform="translate(11.352 9.079)" fill="none" stroke="#0064af" stroke-width="0.5"/>
      <line id="Line_81" data-name="Line 81" x2="41.094" transform="translate(11.411 76.952)" fill="none" stroke="#0064af" stroke-width="0.5"/>
      <text id="MAX" transform="translate(11.648 6)" fill="#0064af" font-size="6" font-family="Roboto-Regular, Roboto"><tspan x="0" y="0">MAX</tspan></text>
      <text id="MIN" transform="translate(11.173 141.112)" fill="#0064af" font-size="6" font-family="Roboto-Regular, Roboto"><tspan x="0" y="0">MIN</tspan></text>
      <g id="Group_92" data-name="Group 92" transform="translate(68.669 9.546)">
        <rect id="Rectangle_93" data-name="Rectangle 93" width="22.213" height="13.664" transform="translate(0)"/>
        <path id="Path_126" data-name="Path 126" d="M272.217,799.3H245.4l26.838,36.4Z" transform="translate(-208.489 -799.257)"/>
        <path id="Path_127" data-name="Path 127" d="M245.354,869.411h25.835l-25.789-34.9Z" transform="translate(-208.487 -801.024)"/>
        <rect id="Rectangle_94" data-name="Rectangle 94" width="22.071" height="48.093" transform="translate(0.142 20.294)"/>
      </g>
      <g id="Group_94" data-name="Group 94" transform="translate(66.637 143.57)">
        <g id="Group_93" data-name="Group 93">
          <rect id="Rectangle_95" data-name="Rectangle 95" width="13.674" height="8.411"/>
          <path id="Path_128" data-name="Path 128" d="M244.832,940.387H228.324l16.522,22.407Z" transform="translate(-205.6 -940.36)"/>
          <path id="Path_129" data-name="Path 129" d="M228.295,983.547h15.9l-15.876-21.484Z" transform="translate(-205.599 -941.447)"/>
          <rect id="Rectangle_96" data-name="Rectangle 96" width="13.587" height="29.607" transform="translate(0.087 12.494)"/>
        </g>
      </g>
      <text id="_48_px" data-name="48 px" transform="translate(1.662 168.204)" fill="#1a1718" font-size="10" font-family="Roboto-Regular, Roboto"><tspan x="0" y="0">48 px</tspan></text>
      <text id="_96_px" data-name="96 px" transform="translate(0 44.398)" fill="#1a1718" font-size="10" font-family="Roboto-Regular, Roboto"><tspan x="0" y="0">96 px</tspan></text>
      <text id="Light_theme_logo_example_within_our_application" data-name="Light theme logo example 
within our application" transform="translate(195.456 34.013)" fill="#040505" font-size="12" font-family="Roboto-Regular, Roboto" letter-spacing="0.005em" opacity="0.87"><tspan x="0" y="0">Light theme logo example </tspan><tspan x="0" y="18">within our application</tspan></text>
      <g id="Group_96" data-name="Group 96" transform="translate(440.262 16.914)">
        <rect id="Rectangle_97" data-name="Rectangle 97" width="303.943" height="61.739" fill="#fff"/>
        <g id="Group_95" data-name="Group 95" transform="translate(16.407 14.449)">
          <path id="Path_130" data-name="Path 130" d="M740.708,823.943a15.672,15.672,0,1,0,15.673,15.672,15.672,15.672,0,0,0-15.673-15.672" transform="translate(-675.646 -823.26)" fill="#2b2b2b"/>
          <path id="Path_131" data-name="Path 131" d="M749.785,841.75a8.844,8.844,0,0,1-4.119,6.713,13.389,13.389,0,0,0,1.983-6.713h-1.576c-.178,3.277-1.428,6.108-3.13,7.367a29.569,29.569,0,0,0,.956-7.367h-1.563c-.081,4.63-.856,7.337-1.349,7.975-.491-.636-1.266-3.343-1.347-7.975h-1.563a29.533,29.533,0,0,0,.956,7.368c-1.7-1.259-2.953-4.09-3.131-7.368h-1.576a13.4,13.4,0,0,0,1.982,6.712,8.842,8.842,0,0,1-4.118-6.712h-1.578a10.422,10.422,0,0,0,10.374,9.631h0a10.422,10.422,0,0,0,10.372-9.631Z" transform="translate(-675.926 -824.153)" fill="#f3950a"/>
          <path id="Path_132" data-name="Path 132" d="M741.035,829.963h-.1a10.422,10.422,0,0,0-10.326,9.627h1.578A8.792,8.792,0,0,1,735,833.9a8.925,8.925,0,0,1,1.309-1.022h0a13.42,13.42,0,0,0-1.982,6.712H735.9c.177-3.277,1.427-6.109,3.13-7.368a29.625,29.625,0,0,0-.956,7.368h1.563a35.829,35.829,0,0,1,.269-3.926,10.465,10.465,0,0,1,1.079-4.049h0c.491.636,1.267,3.342,1.347,7.974H743.9c0-.008,0-.02,0-.029a29.448,29.448,0,0,0-.956-7.338h0a5.754,5.754,0,0,1,1.27,1.339,11.823,11.823,0,0,1,1.86,6.028h1.577a13.41,13.41,0,0,0-1.983-6.712h0v0a8.936,8.936,0,0,1,2.72,2.689,8.728,8.728,0,0,1,1.4,4.024h1.579a10.421,10.421,0,0,0-10.328-9.627" transform="translate(-675.926 -823.562)" fill="#fff"/>
          <rect id="Rectangle_98" data-name="Rectangle 98" width="10.109" height="6.229" fill="#040505"/>
          <path id="Path_133" data-name="Path 133" d="M704.238,823.246H691.2l13.047,18.107Z" transform="translate(-673.948 -823.225)" fill="#040505"/>
          <path id="Path_134" data-name="Path 134" d="M691.8,857.34l11.64.029L691.8,841.207Z" transform="translate(-673.978 -824.126)" fill="#040505"/>
          <rect id="Rectangle_99" data-name="Rectangle 99" width="10.109" height="23.861" transform="translate(0 9.382)" fill="#040505"/>
          <path id="Path_135" data-name="Path 135" d="M956.595,836.266v-.751l0-.849-7.592,7.148-7.605-7.16v3.358l6.713,6.322.894.842,7.585-7.143Z" transform="translate(-686.502 -823.797)" fill="#0063a8"/>
          <text id="InSight_Fleet" data-name="InSight Fleet" transform="translate(99.969 23.907)" fill="#040505" font-size="22" font-family="Roboto-Light, Roboto" font-weight="300"><tspan x="0" y="0">InSight Fleet</tspan></text>
        </g>
      </g>
      <g id="Group_98" data-name="Group 98" transform="translate(440.262 111.897)">
        <rect id="Rectangle_100" data-name="Rectangle 100" width="303.943" height="61.739" fill="#343333"/>
        <path id="Path_136" data-name="Path 136" d="M740.708,923.943a15.672,15.672,0,1,0,15.673,15.672,15.672,15.672,0,0,0-15.673-15.672" transform="translate(-659.238 -908.811)" fill="#2b2b2b"/>
        <path id="Path_137" data-name="Path 137" d="M749.785,941.75a8.844,8.844,0,0,1-4.119,6.713,13.389,13.389,0,0,0,1.983-6.713h-1.576c-.178,3.277-1.428,6.108-3.13,7.367a29.568,29.568,0,0,0,.956-7.367h-1.563c-.081,4.63-.856,7.337-1.349,7.975-.491-.636-1.266-3.343-1.347-7.975h-1.563a29.533,29.533,0,0,0,.956,7.368c-1.7-1.259-2.953-4.09-3.131-7.368h-1.576a13.4,13.4,0,0,0,1.982,6.712,8.842,8.842,0,0,1-4.118-6.712h-1.578a10.422,10.422,0,0,0,10.374,9.631h0a10.422,10.422,0,0,0,10.372-9.631Z" transform="translate(-659.518 -909.705)" fill="#f3950a"/>
        <path id="Path_138" data-name="Path 138" d="M741.035,929.963h-.1a10.422,10.422,0,0,0-10.326,9.627h1.578A8.792,8.792,0,0,1,735,933.9a8.929,8.929,0,0,1,1.309-1.022h0a13.419,13.419,0,0,0-1.982,6.712H735.9c.177-3.277,1.427-6.109,3.13-7.368a29.624,29.624,0,0,0-.956,7.368h1.563a35.827,35.827,0,0,1,.269-3.926,10.465,10.465,0,0,1,1.079-4.049h0c.491.636,1.267,3.342,1.347,7.974H743.9c0-.009,0-.02,0-.029a29.448,29.448,0,0,0-.956-7.338h0a5.754,5.754,0,0,1,1.27,1.339,11.822,11.822,0,0,1,1.86,6.028h1.577a13.41,13.41,0,0,0-1.983-6.712h0v0a8.936,8.936,0,0,1,2.72,2.689,8.728,8.728,0,0,1,1.4,4.024h1.579a10.421,10.421,0,0,0-10.328-9.627" transform="translate(-659.518 -909.113)" fill="#fff"/>
        <g id="Group_97" data-name="Group 97" transform="translate(16.407 14.449)">
          <rect id="Rectangle_101" data-name="Rectangle 101" width="10.109" height="6.229" fill="#fff"/>
          <path id="Path_139" data-name="Path 139" d="M704.238,923.246H691.2l13.047,18.107Z" transform="translate(-673.948 -923.225)" fill="#fff"/>
          <path id="Path_140" data-name="Path 140" d="M691.8,957.34l11.64.029L691.8,941.207Z" transform="translate(-673.978 -924.126)" fill="#fff"/>
          <rect id="Rectangle_102" data-name="Rectangle 102" width="10.109" height="23.861" transform="translate(0 9.382)" fill="#fff"/>
        </g>
        <text id="InSight_Fleet-2" data-name="InSight Fleet" transform="translate(116.376 38.356)" fill="#fff" font-size="22" font-family="Roboto-Light, Roboto" font-weight="300"><tspan x="0" y="0">InSight Fleet</tspan></text>
        <path id="Path_141" data-name="Path 141" d="M956.595,936.266v-.751l0-.849-7.592,7.148-7.605-7.16v3.358l6.713,6.322.894.842,7.585-7.143Z" transform="translate(-670.095 -909.349)" fill="#ff9e26"/>
      </g>
      <text id="Dark_theme_logo_example_within_our_application" data-name="Dark theme logo example 
within our application" transform="translate(196.406 126.48)" fill="#fff" font-size="12" font-family="Roboto-Regular, Roboto" letter-spacing="0.005em" opacity="0.87"><tspan x="0" y="0">Dark theme logo example </tspan><tspan x="0" y="18">within our application</tspan></text>
    </g>
  </g>
</svg>
