<svg width="1823" height="509" viewBox="0 0 1823 509" fill="none" xmlns="http://www.w3.org/2000/svg">
<path d="M160.635 65.5477H109.626L109.782 58.7209C109.581 45.6639 103.429 38.6162 99.6924 36.2743C94.7479 33.5057 89.1033 32.1946 83.4275 32.4964C75.8655 32.4964 67.7666 36.208 64.1422 41.0243C61.6486 44.0944 60.0961 47.8046 59.6677 51.7174C59.1104 57.6047 60.5421 63.5087 63.7395 68.5081C66.0887 72.1314 76.9841 81.3 92.6002 88.5686C124.526 103.437 142.089 114.285 150.076 123.918C157.682 133.064 163.499 142.896 163.343 163.928C163.343 177.825 160.635 185.425 156.116 192.649C150.691 202.216 142.442 209.923 132.468 214.742C119.917 220.42 107.165 223.579 83.7854 223.579C65.0148 223.579 47.9892 222.276 34.6998 216.62C21.4105 210.964 13.6024 202.922 9.48588 194.174C5.36931 185.425 3.98221 178.929 3.60188 165.453V152.97H56.2V164.525C56.4684 179.99 64.6792 185.999 67.3863 187.369C72.7387 189.75 78.5968 190.811 84.4566 190.462C95.6429 190.462 101.572 187.612 106.315 182.508C109.242 178.801 110.698 174.166 110.409 169.473C110.409 156.836 106.516 152.904 102.176 149.015C97.8354 145.127 78.8411 133.241 61.3904 124.138C50.7366 118.802 40.5451 112.61 30.9189 105.624C24.1844 100.759 18.426 94.698 13.938 87.7512C9.02672 79.4966 6.52555 70.0605 6.71167 60.4883C6.71167 44.0732 10.7611 34.1313 16.0411 26.5313C22.3167 17.528 31.2441 10.648 41.613 6.82424C54.2259 2.07101 67.6478 -0.239271 81.1454 0.0195758C99.3568 0.0195758 114.883 1.2347 127.725 5.91843C140.567 10.6022 149.069 18.3789 153.23 25.4929C157.391 32.6069 160.635 43.0127 160.635 63.25V65.5477Z" fill="black" fill-opacity="0.45"/>
<path d="M321.786 131.297V153.213C322.105 164.832 320.596 176.429 317.311 187.59C315.522 194.019 311.942 199.211 306.125 205.662C300.152 212.039 292.485 216.632 283.998 218.918C273.697 221.666 263.054 222.96 252.386 222.762C239.097 222.762 230.863 221.746 221.78 218.985C213.936 216.853 206.704 212.942 200.66 207.562C195.377 202.358 191.32 196.067 188.781 189.137C186.364 182.708 183.322 176.014 183.322 158.693L182.941 138.654C182.941 115.788 186.499 102.068 190.459 94.0482C195.031 84.9475 202.573 77.632 211.869 73.2807C222.183 68.4203 233.794 65.7249 249.903 65.6365C267.42 65.5261 281.694 67.7133 293.619 73.104C303.328 77.5226 310.152 85.1447 315.387 95.1971C319.571 103.261 322.166 117.622 321.786 131.297ZM273.573 146.961C273.573 131.496 273.014 117.511 273.014 117.511C272.723 109.27 270.776 102.488 266.593 98.1134C264.801 96.3425 262.639 94.9785 260.259 94.1162C257.879 93.2539 255.338 92.9141 252.811 93.1203C250.099 92.9898 247.39 93.4262 244.861 94.4008C242.332 95.3754 240.04 96.8664 238.135 98.7762C235.092 102.002 233.235 108.342 232.474 116.672C232.474 116.672 231.624 129.64 231.624 146.1C231.624 154.517 232.43 167.994 232.877 172.854C233.324 177.715 234.667 185.58 239.164 190.529C240.864 192.362 244.69 195.5 252.99 195.5C261.939 195.5 264.646 192.208 266.906 189.822C269.658 186.861 272.007 179.703 272.365 173.738C272.521 168.634 273.573 160.305 273.573 146.961V146.961Z" fill="black" fill-opacity="0.45"/>
<path d="M393.937 3.26562V219.888H344.717V3.37609L393.937 3.26562Z" fill="black" fill-opacity="0.45"/>
<path d="M470.408 112.471H424.253V107.412C424.253 102.286 425.595 92.9187 427.944 88.3676C431.546 81.342 436.133 76.7024 446.737 71.621C457.342 66.5396 470.676 65.5012 487.612 65.5012C507.927 65.5012 518.419 67.3349 529.807 73.1233C540.344 78.4699 546.184 84.5676 548.421 92.8083C550.658 101.049 551.844 114.725 551.844 140.772C551.844 140.772 551.844 169.493 551.844 188.25C551.956 210.631 553.79 219.888 553.79 219.888H510.097L508.799 203.936C504.909 207.599 500.751 210.973 496.36 214.033C486.987 220.072 475.954 223.104 464.77 222.716C447.409 222.296 441.726 219.843 433.448 213.724C425.17 207.604 418.995 198.259 418.145 179.634V177.999C418.011 167.527 418.749 159.22 421.389 153.52C427.475 140.397 436.804 132.51 454.948 127.008C470.81 122.258 502.669 122.59 505.264 122.59V110.284C505.264 100.519 504.526 97.9781 502.222 95.0618C498.172 89.9141 491.751 89.5385 488.172 89.5827C480.341 89.5827 475.307 91.9466 472.667 95.3711C470.988 97.6587 470.195 100.465 470.43 103.28L470.408 112.471ZM505.622 147.334C489.961 147.82 476.538 149.543 471.101 153.476C463.248 159.286 463.427 170.642 463.427 175.569C463.427 184.826 466.627 190.857 470.922 193.641C475.218 196.425 481.147 196.381 485.084 196.204C488.267 196.025 491.39 195.276 494.302 193.995C497.712 192.105 500.555 189.358 502.543 186.033C504.531 182.708 505.594 178.922 505.622 175.061V147.334Z" fill="black" fill-opacity="0.45"/>
<path d="M629.567 68.3555L629.969 88.2393C639.254 68.466 654.154 66.4334 674.715 65.5718V102.909C663.707 102.909 650.932 103.859 643.863 107.902C638.804 111.483 635.128 116.656 633.437 122.572C632.251 127.985 632.095 142.456 632.095 157.656V219.892H583.099V68.5102L629.567 68.3555Z" fill="black" fill-opacity="0.45"/>
<path d="M1080.04 67.9764L1080.42 87.8601C1089.7 68.0868 1105.39 66.0543 1126.04 65.1926V102.906C1115.01 102.906 1101.43 104.607 1094.38 108.672C1089.46 111.478 1084.89 119.033 1083.95 123.32C1082.77 128.732 1082.61 141.966 1082.61 157.254V219.513H1033.62V68.0426L1080.04 67.9764Z" fill="black" fill-opacity="0.45"/>
<path d="M895.577 3.26562V40.9564H837.99V219.513H785.973V40.9564H726.977V3.26562H895.577Z" fill="black" fill-opacity="0.45"/>
<path d="M1348 4.01904V36.8052H1298.78V4.01904H1348ZM1348 68.089V219.515H1298.78V68.0448L1348 68.089Z" fill="black" fill-opacity="0.45"/>
<path d="M1424.65 68.1322V82.0729C1428.83 76.5054 1439.14 70.2089 1445.47 68.1764C1452.36 65.9257 1459.62 64.9812 1466.86 65.3926C1474.69 65.26 1482.43 67.0357 1489.39 70.5624C1496.1 73.6775 1503.08 78.6927 1506.24 86.359C1509.39 94.0253 1509.03 100.189 1509.03 113.423V219.47H1459.1V114.682C1459.1 104.254 1458.79 102.487 1457.82 100.256C1454.74 93.0752 1446.64 92.1915 1442.83 92.1915C1439.03 92.1915 1428.96 93.1857 1426.1 100.764C1425.09 103.415 1424.53 105.779 1424.53 117.179V219.514H1375.92V68.1322H1424.65Z" fill="black" fill-opacity="0.45"/>
<path d="M1266.29 87.2193C1263.12 79.9321 1257.68 73.8331 1250.76 69.81C1243.95 65.9908 1236.22 64.0667 1228.39 64.2425C1220.09 63.8007 1211.78 65.0103 1203.96 67.7995C1196.91 70.6132 1190.68 75.1245 1185.84 80.9228V63.1158V3.26562H1137.65V219.513H1184.36V202.368C1188.55 207.914 1193 213.216 1200.43 216.751C1208.46 220.595 1219.58 221.567 1225.73 221.413C1236.6 221.125 1243.49 219.866 1249.85 216.243C1256.79 211.692 1262.37 205.381 1266 197.972C1268.24 193.553 1272.91 180.85 1272.91 160.524V152.924V127.429C1273 102.927 1268.77 92.8089 1266.29 87.2193ZM1224.14 161.297C1224.3 169.139 1223.06 176.947 1220.47 184.363C1217.38 191.543 1213.47 195.564 1204.81 195.409C1196.15 195.254 1192.06 189.378 1188.77 181.977C1185.67 173.689 1184.32 164.862 1184.81 156.039V123.342C1184.65 115.572 1185.86 107.834 1188.39 100.475C1189.74 97.4066 1192.01 94.8149 1194.88 93.0405C1197.76 91.2661 1201.11 90.3921 1204.5 90.5333C1207.8 90.4771 1211.05 91.3222 1213.89 92.9752C1216.73 94.6283 1219.06 97.025 1220.61 99.9007C1223.05 106.085 1224.25 112.682 1224.14 119.321V161.297Z" fill="black" fill-opacity="0.45"/>
<path d="M956.431 219.449L956.565 205.133C950.656 211.747 943.252 216.894 934.953 220.156C927.026 222.34 918.776 223.155 910.567 222.565C900.007 222.299 894.28 220.355 888.015 216.644C881.491 213.174 876.495 207.446 873.988 200.56C872.198 194.882 871.437 187.017 871.437 173.783V67.7362H921.261V172.524C921.261 182.952 921.574 184.719 922.536 186.95C923.903 189.729 926.01 192.087 928.631 193.772C931.252 195.457 934.289 196.406 937.414 196.517C941.508 196.517 952.046 195.147 954.91 187.68C955.894 185.05 956.476 181.538 956.476 170.138V67.6699H1006.3V219.449H956.431Z" fill="black" fill-opacity="0.45"/>
<path d="M1659.92 92.5219C1655.57 83.5079 1647.97 76.4182 1638.62 72.6381C1626.49 67.2474 1614.68 65.4358 1596.91 65.5462C1580.6 65.5462 1568.81 67.9544 1558.37 72.8149C1548.93 77.2581 1541.28 84.7044 1536.64 93.9579C1531.3 105.213 1528.68 117.542 1528.99 129.97V149.124C1528.99 166.445 1530.42 177.978 1532.88 184.473C1535.34 190.969 1539.95 201.419 1546.31 207.03C1552.65 212.658 1560.16 216.837 1568.32 219.27C1578.28 222.297 1585.93 223.136 1599.4 223.136C1609.6 223.31 1619.76 221.961 1629.56 219.137C1637.9 217.036 1645.59 212.921 1651.93 207.163C1657.45 202.07 1661.81 195.871 1664.7 188.98C1667.17 182.547 1668.47 175.733 1668.53 168.853H1618.95V173.272C1618.95 184.098 1616.29 187.765 1612.82 190.947C1608.95 194.196 1604.01 195.926 1598.93 195.807C1594.25 195.84 1589.73 194.101 1586.31 190.947C1579.6 185.07 1578.1 170.82 1578.03 161.629V151.466H1668.73V131.98C1668.84 117.929 1664.21 100.608 1659.92 92.5219ZM1622.4 127.981L1578.03 128.158V120.425C1578.17 109.07 1580.83 101.889 1584.54 98.0893C1588.52 94.4344 1593.66 92.2692 1599.08 91.9695C1604.19 91.5081 1609.29 92.8983 1613.43 95.88C1619.17 100.741 1622.37 108.318 1622.37 122.723L1622.4 127.981Z" fill="black" fill-opacity="0.45"/>
<path d="M1821.69 169.163C1820.68 157.675 1808.6 146.142 1795.83 139.183C1790.33 136.2 1773.95 129.241 1769.43 127.518C1764.33 125.551 1750.23 118.68 1747.06 117.377C1744.83 116.446 1742.84 115.052 1741.21 113.291C1739.58 111.529 1738.35 109.442 1737.62 107.17C1737.12 104.847 1737.21 102.44 1737.86 100.157C1738.52 97.8744 1739.74 95.7846 1741.4 94.0687C1743.02 92.3611 1745.01 91.0327 1747.22 90.1804C1749.43 89.3281 1751.8 88.9734 1754.17 89.142C1758.3 88.9731 1762.37 90.2221 1765.67 92.6769C1770.03 96.499 1770.14 101.271 1770.14 109.114V111.986H1818.58C1818.58 102.508 1818.25 97.8466 1814.82 91.285C1809.59 81.2547 1803.64 76.7257 1793.86 72.3512C1781.91 66.9826 1770.7 65.5024 1753.19 65.6128C1737.12 65.6128 1725.51 68.021 1715.15 72.8815C1704.79 77.7419 1697.72 84.1489 1693.74 92.1466C1691.11 97.4392 1689.92 103.318 1690.3 109.202C1690.92 129.086 1703.9 135.537 1709.72 139.89C1718.15 146.186 1756.7 160.348 1761.6 162.911C1766.5 165.474 1774.19 171.615 1774.51 178.376C1774.71 182.551 1775.47 187.854 1769.21 192.714C1765.76 195.388 1760.84 196.36 1755.07 196.36C1750.68 196.609 1746.34 195.318 1742.83 192.714C1738.22 188.848 1737.3 182.331 1737.3 175.04V171.372H1689.47C1689.76 182.419 1689.47 186.197 1691.71 193.024C1693.53 199.26 1697.17 204.83 1702.18 209.041C1707.79 214.233 1714.19 216.884 1723.9 219.336C1734.29 221.849 1744.97 222.993 1755.67 222.739C1765.83 222.899 1775.96 221.551 1785.72 218.74C1794.49 216.38 1802.58 212.022 1809.34 206.014C1814.74 201.157 1818.7 194.94 1820.8 188.031C1822.12 183.391 1822.61 179.26 1821.69 169.163Z" fill="black" fill-opacity="0.45"/>
<path d="M1821.71 292.887H2.21547V318.493H1821.71V292.887Z" fill="black" fill-opacity="0.45"/>
<path d="M71.3911 371.78H70.8318H51.211H48.2578C38.4586 394.845 0 477.23 0 477.23H19.7774L29.6437 453.9H56.6699L57.878 477.23H78.9978L71.3911 371.78ZM35.7962 439.406L53.2245 398.137C54.0747 409.515 55.0143 422.24 55.6855 431.409C55.9092 434.347 56.0882 436.91 56.2448 438.942C56.2001 440.224 37.8545 439.495 35.7962 439.406Z" fill="black" fill-opacity="0.45"/>
<path d="M186.364 370.036C153.32 370.036 148.711 396.547 143.856 424.517C139.001 452.487 134.236 478.977 167.347 478.977C186.051 478.977 197.864 469.918 202.786 441.728H183.008C181.286 450.057 179.406 463.18 170.099 463.18C158.913 463.18 159.405 451.537 164.126 424.517C168.846 397.497 172.337 385.81 183.612 385.81C189.586 385.81 190.928 391.068 188.49 405.097H208.066C212.876 382.452 206.813 370.036 186.364 370.036Z" fill="black" fill-opacity="0.45"/>
<path d="M246.68 402.111C239.588 402.111 233.257 403.415 228.491 406.928C223.726 410.44 220.057 415.964 218.513 424.867H236.68C237.709 419.035 239.163 413.644 245.629 413.644C252.094 413.644 252.341 418.063 251.267 424.447L250.282 430.125C236.344 429.882 222.384 430.523 215.381 443.867C213.572 447.414 212.327 451.214 211.689 455.135C211.138 458.136 210.928 461.189 211.063 464.237C211.533 472.655 215.538 478.642 225.247 478.642C228.892 478.61 232.491 477.835 235.818 476.363C239.144 474.892 242.127 472.756 244.577 470.092L243.861 477.228H261.111C261.491 472.809 261.782 468.059 262.542 463.552L268.941 426.723C271.313 413.268 270.261 402.111 246.68 402.111ZM246.68 453.08C244.935 459.708 241.445 466.071 234.733 466.071C228.693 466.071 229.006 459.642 229.923 454.361C232.16 441.106 238.872 442.122 248.179 441.68C248.179 441.68 248.336 441.68 248.425 441.68L246.68 453.08Z" fill="black" fill-opacity="0.45"/>
<path d="M646.032 402.111C638.873 402.111 632.608 403.415 627.686 406.928C622.764 410.44 619.185 415.964 617.619 424.867H635.964C636.993 419.035 638.448 413.644 644.913 413.644C651.379 413.644 651.625 418.063 650.596 424.447L649.589 430.125C635.539 429.882 621.444 430.523 614.375 443.867C612.596 447.419 611.381 451.219 610.773 455.135C610.221 458.136 610.011 461.189 610.146 464.237C610.616 472.655 614.621 478.642 624.442 478.642C628.113 478.61 631.739 477.834 635.094 476.364C638.45 474.893 641.464 472.758 643.951 470.092L643.302 477.139H660.686C661.089 472.721 661.357 467.971 662.163 463.464L668.606 426.635C670.866 413.268 669.814 402.111 646.032 402.111ZM646.032 453.08C644.264 459.708 640.752 466.071 633.973 466.071C627.888 466.071 628.201 459.642 629.118 454.361C631.355 441.106 638.179 442.122 647.553 441.68C647.553 441.68 647.71 441.68 647.799 441.68L646.032 453.08Z" fill="black" fill-opacity="0.45"/>
<path d="M1112.48 402.111C1106.2 401.759 1099.97 403.451 1094.76 406.928C1089.97 410.264 1086.55 415.964 1085.05 424.867H1102.75C1103.75 419.035 1105.16 413.644 1111.43 413.644C1117.69 413.644 1117.98 418.063 1116.91 424.447L1115.97 430.125C1102.39 429.882 1088.79 430.523 1081.96 443.867C1080.2 447.423 1078.98 451.222 1078.36 455.135C1077.81 458.136 1077.6 461.189 1077.73 464.237C1078.2 472.655 1082.21 478.642 1091.56 478.642C1095.13 478.601 1098.65 477.818 1101.89 476.345C1105.13 474.872 1108.02 472.741 1110.38 470.092L1109.77 477.139H1126.55C1126.93 472.721 1127.2 467.971 1127.96 463.464L1134.29 426.701C1136.53 413.268 1135.43 402.111 1112.48 402.111ZM1112.48 453.08C1110.78 459.708 1107.38 466.071 1100.85 466.071C1094.94 466.071 1095.25 459.642 1096.15 454.361C1098.38 441.106 1104.89 442.122 1113.93 441.68C1113.93 441.68 1114.09 441.68 1114.18 441.68L1112.48 453.08Z" fill="black" fill-opacity="0.45"/>
<path d="M311.695 382.603L291.381 391.794L289.323 403.481H281.761L279.523 416.185H287.085L279.165 461.608C278.382 466.027 278.405 477.957 294.625 477.957C297.905 477.94 301.18 477.689 304.424 477.206L306.661 464.502C305.564 464.766 304.433 464.871 303.305 464.811C297.198 464.811 297.958 461.144 298.943 455.599L305.811 416.185H315.454L317.691 403.481H307.981L311.695 382.603Z" fill="black" fill-opacity="0.45"/>
<path d="M373.914 443.649C378.567 420.673 378.948 403.109 355.792 402.136H354.964C354.472 402.136 354.271 402.136 353.778 402.136C330.802 403.131 323.374 419.811 319.929 439.319C315.924 462.406 316.259 478.623 340.422 478.623C348.087 478.887 355.58 476.337 361.452 471.465C367.014 466.419 370.714 459.687 371.967 452.332H352.995C351.921 458.474 349.371 465.477 342.726 465.477C334.493 465.477 336.529 452.332 338.05 443.561L373.914 443.649ZM351.541 414.685H352.011C353.275 414.549 354.55 414.831 355.635 415.487C356.72 416.142 357.554 417.135 358.007 418.309C358.594 419.952 358.838 421.695 358.723 423.434C358.552 426.337 358.171 429.224 357.582 432.073H340.064C341.093 426.417 344.538 416.32 351.631 414.685H351.541Z" fill="black" fill-opacity="0.45"/>
<path d="M411.791 412.983H411.523L413.201 403.505H395.303L382.573 477.23H401.298L408.301 437.087C409.576 429.774 411.679 419.28 427.944 420.428L431.144 402.047C427.193 401.828 423.262 402.744 419.827 404.685C416.393 406.626 413.601 409.508 411.791 412.983V412.983Z" fill="black" fill-opacity="0.45"/>
<path d="M495.934 477.206H514.638L527.525 403.481H508.799L495.934 477.206Z" fill="black" fill-opacity="0.45"/>
<path d="M511.506 387.996H530.232L533.073 371.78H514.347L511.506 387.996Z" fill="black" fill-opacity="0.45"/>
<path d="M534.035 477.208H552.761L571.173 371.78H552.447L534.035 477.208Z" fill="black" fill-opacity="0.45"/>
<path d="M570.546 477.208H589.295L607.685 371.78H588.959L570.546 477.208Z" fill="black" fill-opacity="0.45"/>
<path d="M706.976 412.986H706.707L708.385 403.508H690.487L677.891 477.232H696.595L703.62 437.089C704.873 429.776 706.998 419.282 723.24 420.431L726.462 402.05C722.489 401.804 718.53 402.708 715.069 404.65C711.608 406.592 708.795 409.489 706.976 412.986V412.986Z" fill="black" fill-opacity="0.45"/>
<path d="M827.272 370.036C794.206 370.036 789.575 396.547 784.764 424.517C779.954 452.487 775.256 478.977 808.301 478.977C827.026 478.977 838.817 469.918 843.761 441.728H823.961C822.239 450.057 820.337 463.18 811.075 463.18C799.777 463.18 800.381 451.537 805.079 424.517C809.777 397.497 813.334 385.81 824.588 385.81C830.584 385.81 831.926 391.068 829.465 405.097H849.108C853.784 382.452 847.721 370.036 827.272 370.036Z" fill="black" fill-opacity="0.45"/>
<path d="M885.957 402.111C861.951 402.111 856.469 419.322 853.046 439.471C849.109 462.558 849.444 478.774 872.936 478.774C896.427 478.774 902.289 462.558 906.226 439.471C909.605 419.256 909.985 402.111 885.957 402.111ZM888.194 438.322C884.368 460.813 881.885 465.629 875.173 465.629C868.461 465.629 867.611 460.813 871.392 438.322C874.032 422.989 875.867 415.235 883.697 415.235C891.46 415.168 890.789 422.923 888.194 438.256V438.322Z" fill="black" fill-opacity="0.45"/>
<path d="M990.235 402.114C982.785 402.114 977.17 405.008 971.823 411.459C971.049 408.694 969.355 406.268 967.012 404.572C964.67 402.876 961.816 402.01 958.914 402.114C955.573 401.992 952.258 402.746 949.308 404.298C946.357 405.85 943.874 408.145 942.112 410.951H941.888L943.141 403.528H925.042L912.535 477.23H930.702L939.293 426.416C940.389 419.788 942.291 414.729 948.063 414.729C953.835 414.729 953.992 419.855 952.918 426.416L944.304 477.23H962.024L970.615 426.416C971.733 419.788 973.613 414.729 979.385 414.729C985.157 414.729 985.336 419.855 984.239 426.416L975.626 477.23H993.748L1003.75 418.087C1005.45 407.88 998.849 402.114 990.235 402.114Z" fill="black" fill-opacity="0.45"/>
<path d="M1055.83 402.111C1048.87 402.111 1043.44 404.586 1038.9 411.744H1038.63L1040.01 403.569H1022.77L1004.87 508.998H1023.01L1029.57 470.291H1029.81C1032.5 476.587 1036.52 478.774 1043.24 478.774C1061.51 478.774 1064.87 455.82 1067.4 440.951C1069.93 426.082 1074.6 402.111 1055.83 402.111ZM1049.84 439.67C1046.7 458.228 1044.24 465.982 1037.69 465.982C1034.04 465.982 1032.05 463.044 1031.8 456.372L1036.66 425.729C1038.69 418.902 1041.58 414.682 1046.32 414.682C1054.2 414.726 1052.36 424.956 1049.84 439.67Z" fill="black" fill-opacity="0.45"/>
<path d="M475.217 401.671C468.617 401.671 463.472 404.146 459.154 411.304H458.908L460.228 403.152H443.851L426.915 508.58H444.119L450.339 469.873H450.585C451.373 472.522 453.07 474.817 455.384 476.365C457.699 477.913 460.487 478.617 463.27 478.356C480.609 478.356 483.786 455.424 486.202 440.533C488.619 425.642 493.048 401.671 475.217 401.671ZM469.535 439.23C466.559 457.788 464.232 465.542 458.013 465.542C454.567 465.542 452.666 462.604 452.442 455.932L457.028 425.289C458.975 418.462 461.704 414.242 466.201 414.242C473.674 414.353 471.929 424.582 469.535 439.318V439.23Z" fill="black" fill-opacity="0.45"/>
<path d="M1187 402.115C1183.64 401.988 1180.31 402.738 1177.33 404.289C1174.36 405.841 1171.85 408.139 1170.07 410.952H1169.8L1171.1 403.485H1152.84L1140.27 477.231H1158.5L1167.16 426.417C1168.28 419.789 1170.18 414.752 1176.11 414.752C1182.04 414.752 1182.08 419.856 1180.96 426.417L1172.33 477.231H1190.6L1200.67 418.088C1202.31 407.837 1195.66 402.115 1187 402.115Z" fill="black" fill-opacity="0.45"/>
<path d="M1231.5 453.878H1231.23L1230.76 402.025H1212.44L1217.54 476.346L1205.84 503.654H1225.17L1268.1 402.025H1250.32L1231.5 453.878Z" fill="black" fill-opacity="0.45"/>
<path d="M663.818 46.4135C659.436 46.4135 655.153 45.1302 651.51 42.7258C647.867 40.3215 645.029 36.9042 643.353 32.9063C641.677 28.9084 641.24 24.5096 642.096 20.2662C642.953 16.0228 645.064 12.1256 648.164 9.06759C651.264 6.0096 655.213 3.92822 659.511 3.08678C663.809 2.24533 668.263 2.68163 672.309 4.34047C676.356 5.9993 679.814 8.80615 682.245 12.4059C684.676 16.0057 685.971 20.2366 685.967 24.5634C685.955 30.3587 683.617 35.9129 679.465 40.0087C675.313 44.1044 669.687 46.4077 663.818 46.4135V46.4135ZM663.818 5.65177C660.03 5.65177 656.328 6.76092 653.178 8.83896C650.029 10.917 647.574 13.8706 646.125 17.3263C644.675 20.7819 644.296 24.5844 645.035 28.2529C645.774 31.9214 647.598 35.2912 650.276 37.936C652.954 40.5809 656.367 42.382 660.082 43.1117C663.797 43.8414 667.647 43.4669 671.147 42.0356C674.646 40.6042 677.637 38.1802 679.741 35.0702C681.846 31.9602 682.969 28.3038 682.969 24.5634C682.963 19.5495 680.943 14.7427 677.353 11.1973C673.763 7.65196 668.895 5.65761 663.818 5.65177V5.65177Z" fill="black" fill-opacity="0.45"/>
<path d="M672.343 32.494C672.231 33.8085 672.503 35.127 673.126 36.294L670.754 37.0894C670.211 35.9977 669.942 34.7927 669.971 33.5766C670.105 27.1254 665.989 26.1533 665.989 26.1533H658.964V36.6254H656.078V12.323H665.743C666.82 12.2469 667.902 12.4053 668.911 12.787C669.92 13.1688 670.832 13.7646 671.582 14.5323C672.774 15.7923 673.445 17.4477 673.461 19.1719C673.467 20.4815 673.103 21.7668 672.41 22.8835C671.622 24.1338 670.382 25.0419 668.942 25.4242C668.942 25.4242 672.678 26.3079 672.343 32.494ZM658.919 23.6568H665.318C666.007 23.7118 666.7 23.6221 667.352 23.3937C668.004 23.1652 668.599 22.8031 669.099 22.3312C669.516 21.9042 669.842 21.3985 670.058 20.8443C670.273 20.2901 670.373 19.6988 670.352 19.1056C670.386 18.5408 670.284 17.976 670.055 17.4576C669.825 16.9391 669.475 16.4818 669.032 16.123C668.082 15.3921 666.901 15.0165 665.698 15.0626H658.986L658.919 23.6568Z" fill="black" fill-opacity="0.45"/>
</svg>
